<svg width="24" height="18" viewBox="0 0 24 18" fill="none" xmlns="http://www.w3.org/2000/svg">
<rect y="0.43" width="24" height="17.1429" rx="2" fill="white"/>
<mask id="mask0_231_3192" style="mask-type:luminance" maskUnits="userSpaceOnUse" x="0" y="0" width="24" height="18">
<rect y="0.43" width="24" height="17.1429" rx="2" fill="white"/>
</mask>
<g mask="url(#mask0_231_3192)">
<path fill-rule="evenodd" clip-rule="evenodd" d="M24 0.43H0V1.57286H24V0.43ZM24 2.71571H0V3.85857H24V2.71571ZM0 5.00143H24V6.14429H0V5.00143ZM24 7.28714H0V8.43H24V7.28714ZM0 9.57286H24V10.7157H0V9.57286ZM24 11.8586H0V13.0014H24V11.8586ZM0 14.1443H24V15.2871H0V14.1443ZM24 16.43H0V17.5729H24V16.43Z" fill="#D02F44"/>
<rect y="0.43" width="10.2857" height="8" fill="#46467F"/>
<g filter="url(#filter0_d_231_3192)">
<path fill-rule="evenodd" clip-rule="evenodd" d="M2.28574 2.14429C2.28574 2.45988 2.0299 2.71571 1.71431 2.71571C1.39872 2.71571 1.14288 2.45988 1.14288 2.14429C1.14288 1.82869 1.39872 1.57286 1.71431 1.57286C2.0299 1.57286 2.28574 1.82869 2.28574 2.14429ZM4.57146 2.14429C4.57146 2.45988 4.31562 2.71571 4.00003 2.71571C3.68444 2.71571 3.4286 2.45988 3.4286 2.14429C3.4286 1.82869 3.68444 1.57286 4.00003 1.57286C4.31562 1.57286 4.57146 1.82869 4.57146 2.14429ZM6.28574 2.71571C6.60133 2.71571 6.85717 2.45988 6.85717 2.14429C6.85717 1.82869 6.60133 1.57286 6.28574 1.57286C5.97015 1.57286 5.71431 1.82869 5.71431 2.14429C5.71431 2.45988 5.97015 2.71571 6.28574 2.71571ZM9.14288 2.14429C9.14288 2.45988 8.88705 2.71571 8.57146 2.71571C8.25586 2.71571 8.00003 2.45988 8.00003 2.14429C8.00003 1.82869 8.25586 1.57286 8.57146 1.57286C8.88705 1.57286 9.14288 1.82869 9.14288 2.14429ZM2.85717 3.85857C3.17276 3.85857 3.4286 3.60273 3.4286 3.28714C3.4286 2.97155 3.17276 2.71571 2.85717 2.71571C2.54158 2.71571 2.28574 2.97155 2.28574 3.28714C2.28574 3.60273 2.54158 3.85857 2.85717 3.85857ZM5.71431 3.28714C5.71431 3.60273 5.45847 3.85857 5.14288 3.85857C4.82729 3.85857 4.57146 3.60273 4.57146 3.28714C4.57146 2.97155 4.82729 2.71571 5.14288 2.71571C5.45847 2.71571 5.71431 2.97155 5.71431 3.28714ZM7.4286 3.85857C7.74419 3.85857 8.00003 3.60273 8.00003 3.28714C8.00003 2.97155 7.74419 2.71571 7.4286 2.71571C7.11301 2.71571 6.85717 2.97155 6.85717 3.28714C6.85717 3.60273 7.11301 3.85857 7.4286 3.85857ZM9.14288 4.43C9.14288 4.74559 8.88705 5.00143 8.57146 5.00143C8.25586 5.00143 8.00003 4.74559 8.00003 4.43C8.00003 4.11441 8.25586 3.85857 8.57146 3.85857C8.88705 3.85857 9.14288 4.11441 9.14288 4.43ZM6.28574 5.00143C6.60133 5.00143 6.85717 4.74559 6.85717 4.43C6.85717 4.11441 6.60133 3.85857 6.28574 3.85857C5.97015 3.85857 5.71431 4.11441 5.71431 4.43C5.71431 4.74559 5.97015 5.00143 6.28574 5.00143ZM4.57146 4.43C4.57146 4.74559 4.31562 5.00143 4.00003 5.00143C3.68444 5.00143 3.4286 4.74559 3.4286 4.43C3.4286 4.11441 3.68444 3.85857 4.00003 3.85857C4.31562 3.85857 4.57146 4.11441 4.57146 4.43ZM1.71431 5.00143C2.0299 5.00143 2.28574 4.74559 2.28574 4.43C2.28574 4.11441 2.0299 3.85857 1.71431 3.85857C1.39872 3.85857 1.14288 4.11441 1.14288 4.43C1.14288 4.74559 1.39872 5.00143 1.71431 5.00143ZM3.4286 5.57286C3.4286 5.88845 3.17276 6.14429 2.85717 6.14429C2.54158 6.14429 2.28574 5.88845 2.28574 5.57286C2.28574 5.25727 2.54158 5.00143 2.85717 5.00143C3.17276 5.00143 3.4286 5.25727 3.4286 5.57286ZM5.14288 6.14429C5.45847 6.14429 5.71431 5.88845 5.71431 5.57286C5.71431 5.25727 5.45847 5.00143 5.14288 5.00143C4.82729 5.00143 4.57146 5.25727 4.57146 5.57286C4.57146 5.88845 4.82729 6.14429 5.14288 6.14429ZM8.00003 5.57286C8.00003 5.88845 7.74419 6.14429 7.4286 6.14429C7.11301 6.14429 6.85717 5.88845 6.85717 5.57286C6.85717 5.25727 7.11301 5.00143 7.4286 5.00143C7.74419 5.00143 8.00003 5.25727 8.00003 5.57286ZM8.57146 7.28714C8.88705 7.28714 9.14288 7.03131 9.14288 6.71571C9.14288 6.40012 8.88705 6.14429 8.57146 6.14429C8.25586 6.14429 8.00003 6.40012 8.00003 6.71571C8.00003 7.03131 8.25586 7.28714 8.57146 7.28714ZM6.85717 6.71571C6.85717 7.03131 6.60133 7.28714 6.28574 7.28714C5.97015 7.28714 5.71431 7.03131 5.71431 6.71571C5.71431 6.40012 5.97015 6.14429 6.28574 6.14429C6.60133 6.14429 6.85717 6.40012 6.85717 6.71571ZM4.00003 7.28714C4.31562 7.28714 4.57146 7.03131 4.57146 6.71571C4.57146 6.40012 4.31562 6.14429 4.00003 6.14429C3.68444 6.14429 3.4286 6.40012 3.4286 6.71571C3.4286 7.03131 3.68444 7.28714 4.00003 7.28714ZM2.28574 6.71571C2.28574 7.03131 2.0299 7.28714 1.71431 7.28714C1.39872 7.28714 1.14288 7.03131 1.14288 6.71571C1.14288 6.40012 1.39872 6.14429 1.71431 6.14429C2.0299 6.14429 2.28574 6.40012 2.28574 6.71571Z" fill="url(#paint0_linear_231_3192)"/>
</g>
</g>
<defs>
<filter id="filter0_d_231_3192" x="1.14288" y="1.57286" width="8" height="6.71429" filterUnits="userSpaceOnUse" color-interpolation-filters="sRGB">
<feFlood flood-opacity="0" result="BackgroundImageFix"/>
<feColorMatrix in="SourceAlpha" type="matrix" values="0 0 0 0 0 0 0 0 0 0 0 0 0 0 0 0 0 0 127 0" result="hardAlpha"/>
<feOffset dy="1"/>
<feColorMatrix type="matrix" values="0 0 0 0 0 0 0 0 0 0 0 0 0 0 0 0 0 0 0.06 0"/>
<feBlend mode="normal" in2="BackgroundImageFix" result="effect1_dropShadow_231_3192"/>
<feBlend mode="normal" in="SourceGraphic" in2="effect1_dropShadow_231_3192" result="shape"/>
</filter>
<linearGradient id="paint0_linear_231_3192" x1="1.14288" y1="1.57286" x2="1.14288" y2="7.28714" gradientUnits="userSpaceOnUse">
<stop stop-color="white"/>
<stop offset="1" stop-color="#F0F0F0"/>
</linearGradient>
</defs>
</svg>
