<svg width="119" height="118" viewBox="0 0 119 118" fill="none" xmlns="http://www.w3.org/2000/svg">
<g clip-path="url(#clip0_5_2)">
<path fill-rule="evenodd" clip-rule="evenodd" d="M29.019 73.4764C29.019 73.4764 40.9759 69.8492 41.2432 57.2195C41.2432 57.2195 31.7728 61.922 29.019 73.4764ZM76.7813 57.2863C77.0517 69.9324 89.0531 73.5655 89.0531 73.5655C86.2889 61.9948 76.7813 57.2863 76.7813 57.2863ZM99.4668 89.5656C99.2663 87.8337 94.5281 85.1853 94.381 85.1021C94.537 85.2314 98.7167 88.707 98.6529 89.8359C98.583 90.987 96.4813 90.2414 96.4813 90.2414C97.4973 91.3925 99.6718 91.3242 99.4668 89.5656ZM117.01 73.0115C116.128 73.2284 115.207 73.3442 114.256 73.3442C107.914 73.3442 102.772 68.2005 102.772 61.8552C102.772 57.6324 105.05 53.9398 108.446 51.945C104.129 45.3635 98.5311 39.697 92.0105 35.3004C90.0736 38.9127 86.2652 41.3665 81.882 41.3665C75.5366 41.3665 70.3959 36.2228 70.3959 29.8774C70.3959 28.6773 70.5786 27.5232 70.9217 26.4374C67.0851 25.6546 63.1118 25.2417 59.0435 25.2417C55.2425 25.2417 51.5262 25.6012 47.9258 26.2874C48.2986 27.4162 48.4991 28.6238 48.4991 29.8774C48.4991 36.2228 43.3554 41.3665 37.013 41.3665C32.4694 41.3665 28.5436 38.7285 26.6796 34.8994C20.0743 39.235 14.3899 44.863 9.98738 51.4237C13.9265 53.2447 16.6595 57.2313 16.6595 61.8552C16.6595 68.2005 11.5188 73.3442 5.17342 73.3442C3.75938 73.3442 2.40624 73.0873 1.15559 72.6194C0.398069 76.3936 0 80.2956 0 84.2926C0 96.6848 3.81731 108.186 10.3379 117.681H24.3832V90.2681C22.5132 91.394 19.3717 92.866 18.6736 90.5429C17.6666 87.1831 24.3832 83.9599 24.3832 83.9599L24.4441 83.9332C24.5229 64.7085 40.1382 49.4304 59.3806 49.4304C78.6231 49.4304 94.1404 64.9031 94.3053 84.052C94.9098 84.3535 100.862 87.4103 99.9154 90.589C99.2381 92.8585 96.2362 91.498 94.3751 90.3855V117.683H107.751C114.271 108.187 118.088 96.6862 118.088 84.2941C118.088 80.4367 117.719 76.6654 117.012 73.013L117.01 73.0115ZM20.153 89.7349C20.0862 88.6105 24.2525 85.1422 24.3817 85.0353C24.2495 85.1066 19.5455 87.7445 19.345 89.4675C19.1445 91.2128 21.2937 91.2796 22.3008 90.1389C22.3008 90.1389 20.2184 90.8771 20.1515 89.7349H20.153ZM77.2299 84.4233C73.4438 81.9042 66.9959 78.3988 60.4397 78.3988C53.5195 78.3988 46.4746 81.9042 42.3023 84.4233C39.9629 85.8374 38.5295 86.938 38.5295 86.938L42.3929 114.889L42.8028 117.863H54.6944V110.494C54.6944 110.494 46.28 107.201 46.28 98.3944C46.28 89.5878 53.8106 86.2934 53.8106 86.2934V98.2592L59.4757 101.622L65.0071 98.3959V86.2948C65.0071 86.2948 72.8779 89.4556 72.8779 98.3959C72.8779 107.336 64.7353 110.562 64.7353 110.562V117.864H76.3625L76.8081 114.638L80.6387 86.9395C80.6387 86.9395 79.3495 85.8389 77.2269 84.4248L77.2299 84.4233ZM72.0075 98.0646C71.544 91.189 67.1757 88.8674 67.0375 88.7962C67.1712 88.8897 71.5975 92.0461 71.1994 98.3335C70.9276 102.641 67.2886 106.552 64.9521 107.066L64.8853 109.485C64.8853 109.485 72.4768 105.052 72.006 98.0631L72.0075 98.0646Z" fill="white"/>
<path fill-rule="evenodd" clip-rule="evenodd" d="M29.019 73.4764C29.019 73.4764 40.9759 69.8492 41.2432 57.2195C41.2432 57.2195 31.7728 61.922 29.019 73.4764ZM77.2299 84.4233C73.4438 81.9042 66.9959 78.3988 60.4397 78.3988C53.5195 78.3988 46.4746 81.9042 42.3023 84.4233C39.9629 85.8374 38.5295 86.938 38.5295 86.938L42.3929 114.889C44.6105 116.126 46.9766 117.13 49.4586 117.863H54.6959V110.494C54.6959 110.494 46.2815 107.201 46.2815 98.3944C46.2815 89.5878 53.8121 86.2934 53.8121 86.2934V98.2592L59.4772 101.622L65.0086 98.3959V86.2949C65.0086 86.2949 72.8794 89.4556 72.8794 98.3959C72.8794 107.336 64.7368 110.562 64.7368 110.562V117.864H69.3012C71.9481 117.081 74.4642 115.991 76.8095 114.638L80.6402 86.9395C80.6402 86.9395 79.3509 85.8389 77.2284 84.4248L77.2299 84.4233ZM72.0075 98.0646C71.544 91.189 67.1757 88.8675 67.0375 88.7962C67.1712 88.8897 71.5975 92.0461 71.1994 98.3335C70.9276 102.641 67.2886 106.552 64.9521 107.066L64.8853 109.485C64.8853 109.485 72.4768 105.052 72.006 98.0632L72.0075 98.0646ZM76.7813 57.2863C77.0517 69.9324 89.0531 73.5656 89.0531 73.5656C86.2889 61.9948 76.7813 57.2863 76.7813 57.2863Z" fill="white"/>
<path fill-rule="evenodd" clip-rule="evenodd" d="M72.0075 98.0646C71.544 91.189 67.1757 88.8674 67.0375 88.7962C67.1712 88.8897 71.5975 92.0461 71.1994 98.3335C70.9276 102.641 67.2886 106.552 64.9521 107.066L64.8853 109.485C64.8853 109.485 72.4768 105.052 72.006 98.0631L72.0075 98.0646ZM77.2299 84.4233H42.3023C39.9629 85.8374 38.5295 86.938 38.5295 86.938L42.3929 114.889L42.8028 117.863H54.6944V110.494C54.6944 110.494 46.28 107.201 46.28 98.3944C46.28 89.5878 53.8106 86.2934 53.8106 86.2934V98.2592L59.4757 101.622L65.0071 98.3959V86.2948C65.0071 86.2948 72.8779 89.4556 72.8779 98.3959C72.8779 107.336 64.7353 110.562 64.7353 110.562V117.864H76.3625L76.8081 114.638L80.6387 86.9395C80.6387 86.9395 79.3495 85.8389 77.2269 84.4248L77.2299 84.4233Z" fill="white"/>
<path fill-rule="evenodd" clip-rule="evenodd" d="M72.0075 98.0646C71.544 91.189 67.1757 88.8675 67.0375 88.7962C67.1712 88.8897 71.5975 92.0461 71.1994 98.3335C70.9276 102.641 67.2886 106.552 64.9521 107.066L64.8853 109.485C64.8853 109.485 72.4768 105.052 72.006 98.0632L72.0075 98.0646ZM77.2299 84.4233C73.4438 81.9042 66.9959 78.3988 60.4397 78.3988C53.5195 78.3988 46.4746 81.9042 42.3023 84.4233C39.9629 85.8374 38.5295 86.938 38.5295 86.938L42.3929 114.889L42.8028 117.863H54.6944V110.494C54.6944 110.494 46.28 107.201 46.28 98.3944C46.28 89.5878 53.8106 86.2934 53.8106 86.2934V98.2592L59.4757 101.622L65.0071 98.3959V86.2949C65.0071 86.2949 72.8779 89.4556 72.8779 98.3959C72.8779 107.336 64.7353 110.562 64.7353 110.562V117.864H76.3625L76.8081 114.638L80.6387 86.9395C80.6387 86.9395 79.3495 85.8389 77.2269 84.4248L77.2299 84.4233Z" fill="white"/>
<path fill-rule="evenodd" clip-rule="evenodd" d="M72.0075 98.0646C71.544 91.189 67.1757 88.8675 67.0375 88.7962C67.1712 88.8897 71.5975 92.0461 71.1994 98.3335C70.9276 102.641 67.2886 106.552 64.9521 107.066L64.8853 109.485C64.8853 109.485 72.4768 105.052 72.006 98.0632L72.0075 98.0646Z" fill="white"/>
<path fill-rule="evenodd" clip-rule="evenodd" d="M29.019 73.4764C29.019 73.4764 40.9759 69.8492 41.2432 57.2195C41.2432 57.2195 31.7728 61.922 29.019 73.4764Z" fill="white"/>
<path fill-rule="evenodd" clip-rule="evenodd" d="M76.7813 57.2863C77.0516 69.9324 89.0531 73.5656 89.0531 73.5656C86.2889 61.9948 76.7813 57.2863 76.7813 57.2863Z" fill="white"/>
<path fill-rule="evenodd" clip-rule="evenodd" d="M20.153 89.7349C20.0862 88.6105 24.2525 85.1422 24.3817 85.0353C24.2495 85.1066 19.5455 87.7445 19.345 89.4675C19.1445 91.2128 21.2937 91.2796 22.3008 90.1389C22.3008 90.1389 20.2184 90.8771 20.1515 89.7349H20.153Z" fill="white"/>
<path fill-rule="evenodd" clip-rule="evenodd" d="M99.4668 89.5656C99.2663 87.8337 94.5281 85.1853 94.381 85.1021C94.537 85.2314 98.7167 88.707 98.6528 89.8359C98.583 90.987 96.4813 90.2414 96.4813 90.2414C97.4973 91.3925 99.6718 91.3242 99.4668 89.5656Z" fill="white"/>
<path fill-rule="evenodd" clip-rule="evenodd" d="M20.153 89.7349C20.0862 88.6105 24.2525 85.1422 24.3817 85.0353C24.2495 85.1066 19.5455 87.7445 19.345 89.4675C19.1445 91.2128 21.2937 91.2796 22.3008 90.1389C22.3008 90.1389 20.2184 90.8771 20.1515 89.7349H20.153Z" fill="white"/>
<path fill-rule="evenodd" clip-rule="evenodd" d="M99.4668 89.5656C99.2663 87.8337 94.5281 85.1853 94.381 85.1021C94.537 85.2314 98.7167 88.707 98.6528 89.8359C98.583 90.987 96.4813 90.2414 96.4813 90.2414C97.4973 91.3925 99.6718 91.3242 99.4668 89.5656Z" fill="white"/>
<path d="M21.5121 -2.28882e-05L22.8162 1.30261V-2.28882e-05H21.5121ZM18.1879 0.610449L18.176 1.91309L22.8043 6.53693V5.23281L18.1864 0.610449H18.1879ZM18.1775 3.21424L18.1641 17.0041H22.7954L22.8073 7.83808L18.179 3.21424H18.1775ZM20.208 -2.28882e-05H18.8786L22.8162 3.93017V2.60377L20.208 -2.28882e-05Z" fill="white"/>
<path d="M53.8463 10.9395H52.5169L56.407 14.8236V13.4883L53.8448 10.9395H53.8463ZM51.7683 11.4935V12.704C51.7683 12.7352 51.7639 12.762 51.7564 12.7842L55.5203 16.5436C55.596 16.4812 55.6703 16.4159 55.7386 16.3476C55.8931 16.1871 56.0193 16.0178 56.1203 15.8396L51.7683 11.495V11.4935ZM56.3966 10.9395H55.1504L56.4085 12.1842L56.3966 10.9395ZM45.3383 12.9001C45.1378 12.9001 45.0353 12.7946 45.0264 12.5882V4.41439C45.0353 4.21535 45.1422 4.11584 45.3502 4.11584H51.5945C51.7178 4.11584 51.7757 4.17673 51.7683 4.29853L51.7802 6.07499H56.4204L56.4085 2.26957C56.4085 1.64127 56.1901 1.10506 55.7505 0.668377C55.3108 0.222777 54.7761 -2.28882e-05 54.1448 -2.28882e-05H43.5841C42.5013 -2.28882e-05 41.6963 0.377252 41.1719 1.12883C40.6565 1.87595 40.3981 2.78943 40.3981 3.87373L40.4115 13.1303C40.3951 14.2131 40.7635 15.1326 41.5195 15.8856C42.2637 16.6327 43.1846 17.0056 44.2778 17.0056H54.1344C54.3038 17.0056 54.4672 16.9892 54.6202 16.958L50.5563 12.9001H45.3398H45.3383Z" fill="white"/>
<path d="M62.3825 14.0304L61.9904 14.9395L64.0565 17.0041H65.3606L62.3825 14.0304ZM72.9001 -2.28882e-05H68.3402L63.5604 11.2633L66.9425 14.6409L70.6261 5.98141L75.091 17.0041H80.0788L72.9001 -2.28882e-05ZM63.1682 12.1723L62.7761 13.117L66.1582 16.4946L66.5503 15.5603L63.1682 12.1708V12.1723ZM61.6101 15.8633L61.1259 17.0056H62.7538L61.6101 15.8633Z" fill="white"/>
<path d="M85.3027 3.18156V4.11583H86.2503L85.3027 3.18156ZM85.3027 0.564401V1.88041L87.5544 4.11732H88.8586L85.3027 0.565887V0.564401ZM97.0294 11.4356H97.123C98.4612 11.4356 99.4401 11.0568 100.055 10.2933C100.67 9.5269 100.982 8.61491 100.989 7.5618V3.87224C100.989 2.80428 100.616 1.89526 99.8693 1.14071C99.1222 0.378735 98.2087 -0.00151062 97.123 -0.00151062H88.6848L92.8066 4.11435H96.0476C96.257 4.11435 96.355 4.21535 96.3491 4.4129V7.20384C96.355 7.41179 96.257 7.51427 96.0476 7.51427H85.2908L85.2789 17.0026H89.9191L89.9072 11.4341H92.159L96.1293 17.0026H101.448L97.0279 11.4341L97.0294 11.4356ZM87.3807 -2.52872e-05H86.0424L90.1627 4.11583H91.5025L87.3807 -2.52872e-05Z" fill="white"/>
<path fill-rule="evenodd" clip-rule="evenodd" d="M72.0075 98.0646C71.544 91.189 67.1757 88.8675 67.0375 88.7962C67.1712 88.8897 71.5975 92.0461 71.1994 98.3335C70.9276 102.641 67.2886 106.552 64.9521 107.066L64.8853 109.485C64.8853 109.485 72.4768 105.052 72.006 98.0632L72.0075 98.0646Z" fill="white"/>
</g>
<defs>
<clipPath id="clip0_5_2">
<rect width="118.087" height="117.864" fill="white"/>
</clipPath>
</defs>
</svg>
