<svg width="193" height="193" viewBox="0 0 193 193" fill="none" xmlns="http://www.w3.org/2000/svg">
<circle opacity="0.1" cx="96.5" cy="96.5" r="96.5" fill="#3AE15D"/>
<circle opacity="0.1" cx="96.5" cy="96.5" r="76.5" fill="#3AE15D"/>
<circle opacity="0.1" cx="96.5" cy="96.5" r="55.5" fill="#3AE15D"/>
<path d="M49.1173 137.128L86.2788 47.773L147.853 109.347L58.4977 146.508C55.8146 147.624 52.7235 147.012 50.6687 144.957C48.614 142.902 48.0014 139.811 49.1173 137.128Z" fill="url(#paint0_radial_147_6433)" stroke="url(#paint1_linear_147_6433)"/>
<g filter="url(#filter0_b_147_6433)">
<path fill-rule="evenodd" clip-rule="evenodd" d="M108.472 87.1533C125.767 104.448 143.793 114.463 148.734 109.521C152.589 105.667 147.344 93.852 136.642 80.6326L135.808 79.613C134.682 78.2503 133.5 76.8745 132.265 75.4928L131.329 74.4555C129.753 72.7252 128.096 70.9884 126.366 69.2589C124.637 67.5294 122.9 65.8727 121.17 64.2965L120.133 63.3605C118.751 62.1255 117.375 60.9431 116.012 59.817L114.993 58.9831C101.773 48.2815 89.9583 43.0366 86.104 46.8909C81.1626 51.8323 91.1771 69.8584 108.472 87.1533Z" fill="url(#paint2_radial_147_6433)"/>
<path d="M148.381 109.168C147.325 110.224 145.489 110.556 142.886 110.052C140.304 109.552 137.099 108.25 133.479 106.239C126.244 102.219 117.45 95.4239 108.826 86.7997C100.201 78.1755 93.406 69.3818 89.3865 62.1467C87.375 58.5261 86.0732 55.3214 85.5731 52.7394C85.0691 50.1366 85.4016 48.3004 86.4576 47.2444C87.2804 46.4216 88.5739 46.0363 90.3535 46.1484C92.131 46.2603 94.3236 46.8665 96.8405 47.9385C101.87 50.0808 108.088 54.0369 114.677 59.371C114.678 59.3712 114.678 59.3715 114.678 59.3717L115.694 60.2024C115.694 60.2027 115.694 60.2029 115.695 60.2031C117.052 61.3245 118.422 62.5023 119.799 63.7325C119.799 63.7328 119.799 63.733 119.799 63.7333L120.833 64.6661C120.833 64.6664 120.834 64.6666 120.834 64.6668C122.558 66.2376 124.289 67.8886 126.013 69.6124C127.737 71.3362 129.388 73.0672 130.958 74.7914C130.959 74.7917 130.959 74.7919 130.959 74.7922L131.892 75.826C131.892 75.8263 131.893 75.8265 131.893 75.8268C133.123 77.2032 134.301 78.5735 135.422 79.9306C135.422 79.9309 135.423 79.9312 135.423 79.9315L136.254 80.9472C136.254 80.9476 136.254 80.948 136.255 80.9484C141.589 87.5374 145.545 93.7552 147.687 98.7848C148.759 101.302 149.365 103.494 149.477 105.272C149.589 107.051 149.204 108.345 148.381 109.168Z" stroke="url(#paint3_radial_147_6433)"/>
</g>
<path fill-rule="evenodd" clip-rule="evenodd" d="M180.075 39.6066L163.745 40.2894L173.113 57.2724L180.075 39.6066Z" fill="#78D25A"/>
<path fill-rule="evenodd" clip-rule="evenodd" d="M106.794 18.397L97.8855 38.8782L114.521 38.2457L106.794 18.397Z" fill="#D0F93C"/>
<circle cx="142.735" cy="22.8288" r="5.5358" transform="rotate(45 142.735 22.8288)" fill="#AAE849"/>
<circle cx="141.098" cy="92.4411" r="5.5358" transform="rotate(45 141.098 92.4411)" fill="#8DDB52"/>
<path fill-rule="evenodd" clip-rule="evenodd" d="M123.585 49.0282C121.88 48.0538 121.287 45.8832 122.259 44.1774C123.233 42.4678 125.41 41.873 127.118 42.8497L127.575 43.111L128.327 43.5534L129.042 43.9811L129.731 44.4011C134.562 47.3763 137.941 50.1364 140.151 53.3772L140.318 53.6257L140.393 53.7425L140.593 53.7096C147.786 52.5502 153.553 55.0779 157.504 60.5931L157.687 60.8539C159.863 63.987 161.689 71.1389 162.653 75.4974C163.088 77.4609 161.747 79.3396 159.759 79.6402C157.836 79.9309 156.031 78.6305 155.633 76.7276C154.849 72.9856 153.447 67.2256 151.841 64.9131C149.678 61.7979 146.885 60.2756 142.984 60.5755L142.656 60.6048L142.659 60.6805C142.722 62.9424 142.156 65.2662 140.913 67.607L140.76 67.888L140.365 68.5871C135.478 77.084 129.884 80.9128 124.375 79.5193C119.549 78.2987 116.432 73.0301 117.175 68.3391C118.169 62.0627 122.629 58.3246 129.194 56.2749C129.346 56.2275 129.509 56.1791 129.682 56.1302L130.226 55.9818C130.416 55.9319 130.613 55.8817 130.815 55.8316L131.436 55.6813L132.079 55.5328L132.626 55.4107L132.611 55.395C131.107 53.8941 129.011 52.3367 126.313 50.6557L125.999 50.4612L125.359 50.0711L124.69 49.6712L123.981 49.2549L123.585 49.0282ZM135.396 62.1655L135.406 62.1021L134.043 62.3929L133.248 62.5711L132.509 62.746L132.062 62.8587L131.662 62.9667L131.315 63.069C127.059 64.3978 124.691 66.3826 124.205 69.4526C124.015 70.6474 125.017 72.3402 126.12 72.6192C127.385 72.9391 129.26 71.9676 131.517 69.0931L131.835 68.6796C131.888 68.6086 131.941 68.5365 131.995 68.4635L132.32 68.0122C132.483 67.7802 132.648 67.5386 132.815 67.2872L133.151 66.7712C133.207 66.683 133.263 66.5936 133.32 66.5032L133.662 65.9473L134.008 65.3642C134.066 65.2647 134.124 65.1641 134.183 65.0624L134.535 64.438C134.964 63.6632 135.252 62.9085 135.396 62.1655Z" fill="white"/>
<defs>
<filter id="filter0_b_147_6433" x="71.2511" y="32.038" width="92.3361" height="92.3361" filterUnits="userSpaceOnUse" color-interpolation-filters="sRGB">
<feFlood flood-opacity="0" result="BackgroundImageFix"/>
<feGaussianBlur in="BackgroundImageFix" stdDeviation="6.7957"/>
<feComposite in2="SourceAlpha" operator="in" result="effect1_backgroundBlur_147_6433"/>
<feBlend mode="normal" in="SourceGraphic" in2="effect1_backgroundBlur_147_6433" result="shape"/>
</filter>
<radialGradient id="paint0_radial_147_6433" cx="0" cy="0" r="1" gradientUnits="userSpaceOnUse" gradientTransform="translate(84.976 58.0404) rotate(49.4017) scale(81.7277 87.4989)">
<stop stop-color="#D5FB3A"/>
<stop offset="1" stop-color="#4FBF67"/>
</radialGradient>
<linearGradient id="paint1_linear_147_6433" x1="47.5831" y1="60.9905" x2="59.4766" y2="131.254" gradientUnits="userSpaceOnUse">
<stop stop-color="white" stop-opacity="0.29535"/>
<stop offset="1" stop-color="white" stop-opacity="0.01"/>
</linearGradient>
<radialGradient id="paint2_radial_147_6433" cx="0" cy="0" r="1" gradientUnits="userSpaceOnUse" gradientTransform="translate(90.8886 78.2061) rotate(34.3143) scale(57.7876)">
<stop stop-color="white" stop-opacity="0.801593"/>
<stop offset="1" stop-color="#889AFF" stop-opacity="0.301884"/>
</radialGradient>
<radialGradient id="paint3_radial_147_6433" cx="0" cy="0" r="1" gradientUnits="userSpaceOnUse" gradientTransform="translate(91.1271 51.9493) rotate(70.2944) scale(37.5468 56.7979)">
<stop stop-color="white" stop-opacity="0.973411"/>
<stop offset="1" stop-color="white" stop-opacity="0.01"/>
</radialGradient>
</defs>
</svg>
