<svg width="25" height="24" viewBox="0 0 25 24" fill="none" xmlns="http://www.w3.org/2000/svg">
<path opacity="0.4" d="M20.2731 9.99001V9.99H20.27H16.23C15.4723 9.99 15.0694 9.85211 14.8501 9.65808C14.6466 9.47796 14.5 9.15669 14.5 8.51V3.98C14.5 3.33935 14.6461 3.01693 14.8509 2.83503C15.0707 2.63973 15.474 2.5 16.23 2.5H20.27C21.026 2.5 21.4293 2.63973 21.6491 2.83503C21.8539 3.01693 22 3.33935 22 3.98V8.52C22 9.16102 21.8537 9.48268 21.6499 9.66308C21.4312 9.85664 21.0288 9.99476 20.2731 9.99001Z" fill="#00ADB5" stroke="#00ADB5"/>
<path d="M22 15.73V19.77C22 20.5149 21.8471 20.9083 21.6277 21.1277C21.4083 21.3471 21.0149 21.5 20.27 21.5H16.23C15.4851 21.5 15.0917 21.3471 14.8723 21.1277C14.6529 20.9083 14.5 20.5149 14.5 19.77V15.73C14.5 14.9851 14.6529 14.5917 14.8723 14.3723C15.0917 14.1529 15.4851 14 16.23 14H20.27C21.0149 14 21.4083 14.1529 21.6277 14.3723C21.8471 14.5917 22 14.9851 22 15.73Z" fill="#00ADB5" stroke="#00ADB5"/>
<path d="M8.77315 9.99001V9.99H8.77H4.73C3.97225 9.99 3.56936 9.85211 3.35012 9.65808C3.14661 9.47796 3 9.15669 3 8.51V3.98C3 3.33935 3.14613 3.01693 3.35085 2.83503C3.57065 2.63973 3.97403 2.5 4.73 2.5H8.77C9.52597 2.5 9.92935 2.63973 10.1491 2.83503C10.3539 3.01693 10.5 3.33935 10.5 3.98V8.52C10.5 9.16102 10.3537 9.48268 10.1499 9.66308C9.93116 9.85664 9.52884 9.99476 8.77315 9.99001Z" fill="#00ADB5" stroke="#00ADB5"/>
<path opacity="0.4" d="M10.5 15.73V19.77C10.5 20.5149 10.3471 20.9083 10.1277 21.1277C9.90827 21.3471 9.51492 21.5 8.77 21.5H4.73C3.98508 21.5 3.59173 21.3471 3.3723 21.1277C3.15287 20.9083 3 20.5149 3 19.77V15.73C3 14.9851 3.15287 14.5917 3.3723 14.3723C3.59173 14.1529 3.98508 14 4.73 14H8.77C9.51492 14 9.90827 14.1529 10.1277 14.3723C10.3471 14.5917 10.5 14.9851 10.5 15.73Z" fill="#00ADB5" stroke="#00ADB5"/>
</svg>
