<svg width="32" height="32" viewBox="0 0 32 32" fill="none" xmlns="http://www.w3.org/2000/svg">
<path opacity="0.4" d="M29.3332 10.3601V12.0001H2.6665V10.0534C2.6665 7.00011 5.1465 4.53345 8.19984 4.53345H21.3332V7.96011C21.3332 9.65345 22.3465 10.6668 24.0398 10.6668H27.9598C28.4932 10.6668 28.9465 10.5734 29.3332 10.3601Z" fill="#E7EBEA"/>
<path d="M2.6665 12V21.9467C2.6665 25 5.1465 27.4667 8.19984 27.4667H23.7998C26.8532 27.4667 29.3332 25 29.3332 21.9467V12H2.6665ZM10.6665 23H7.99984C7.45317 23 6.99984 22.5467 6.99984 22C6.99984 21.4533 7.45317 21 7.99984 21H10.6665C11.2132 21 11.6665 21.4533 11.6665 22C11.6665 22.5467 11.2132 23 10.6665 23ZM19.3332 23H13.9998C13.4532 23 12.9998 22.5467 12.9998 22C12.9998 21.4533 13.4532 21 13.9998 21H19.3332C19.8798 21 20.3332 21.4533 20.3332 22C20.3332 22.5467 19.8798 23 19.3332 23Z" fill="#E7EBEA"/>
<path d="M27.9602 1.33325H24.0402C22.3468 1.33325 21.3335 2.34659 21.3335 4.03992V7.95992C21.3335 9.65325 22.3468 10.6666 24.0402 10.6666H27.9602C29.6535 10.6666 30.6668 9.65325 30.6668 7.95992V4.03992C30.6668 2.34659 29.6535 1.33325 27.9602 1.33325ZM29.2135 6.57325C29.0802 6.70659 28.8802 6.79992 28.6668 6.81325H26.7868L26.8002 8.66659C26.7868 8.89325 26.7068 9.07992 26.5468 9.23992C26.4135 9.37325 26.2135 9.46659 26.0002 9.46659C25.5602 9.46659 25.2002 9.10659 25.2002 8.66659V6.79992L23.3335 6.81325C22.8935 6.81325 22.5335 6.43992 22.5335 5.99992C22.5335 5.55992 22.8935 5.19992 23.3335 5.19992L25.2002 5.21325V3.34659C25.2002 2.90659 25.5602 2.53325 26.0002 2.53325C26.4402 2.53325 26.8002 2.90659 26.8002 3.34659L26.7868 5.19992H28.6668C29.1068 5.19992 29.4668 5.55992 29.4668 5.99992C29.4535 6.22659 29.3602 6.41325 29.2135 6.57325Z" fill="#E7EBEA"/>
</svg>
