<svg width="20" height="21" viewBox="0 0 20 21" fill="none" xmlns="http://www.w3.org/2000/svg">
<g clip-path="url(#clip0_304_749)">
<rect opacity="0.12" x="1.66663" y="2.1665" width="16.6667" height="16.6667" rx="6" fill="#737373"/>
<path fill-rule="evenodd" clip-rule="evenodd" d="M7.41665 1.3335C7.41665 0.919282 7.08086 0.583496 6.66665 0.583496C6.25244 0.583496 5.91665 0.919283 5.91665 1.3335V1.65052C5.82137 1.67426 5.72828 1.70042 5.63689 1.72924C3.53653 2.39148 1.8913 4.03671 1.22906 6.13707C0.916287 7.12905 0.916417 8.32152 0.916637 10.3363L0.916649 10.5002L0.916637 10.664C0.916417 12.6788 0.916287 13.8713 1.22906 14.8633C1.8913 16.9636 3.53653 18.6088 5.63689 19.2711C6.62887 19.5839 7.82134 19.5837 9.83609 19.5835L9.99998 19.5835L10.1639 19.5835C12.1786 19.5837 13.3711 19.5839 14.3631 19.2711C16.4634 18.6088 18.1087 16.9636 18.7709 14.8633C19.0837 13.8713 19.0835 12.6788 19.0833 10.6641L19.0833 10.5002L19.0833 10.3363C19.0835 8.32152 19.0837 7.12905 18.7709 6.13707C18.1087 4.03671 16.4634 2.39148 14.3631 1.72924C14.2717 1.70042 14.1786 1.67426 14.0833 1.65052V1.3335C14.0833 0.919282 13.7475 0.583496 13.3333 0.583496C12.9191 0.583496 12.5833 0.919283 12.5833 1.3335V1.4521C11.9226 1.41663 11.1397 1.41671 10.1639 1.41682L9.99998 1.41683L9.83611 1.41682C8.86027 1.41671 8.07734 1.41663 7.41665 1.4521V1.3335ZM12.5833 3.8335V2.95432C11.9678 2.91919 11.1576 2.91683 9.99998 2.91683C8.8424 2.91683 8.03218 2.91919 7.41665 2.95432V3.8335C7.41665 4.24771 7.08086 4.5835 6.66665 4.5835C6.25244 4.5835 5.91665 4.24771 5.91665 3.8335V3.21707C4.36513 3.76548 3.15657 5.01206 2.65964 6.58812C2.4254 7.33103 2.41665 8.27227 2.41665 10.5002C2.41665 12.7281 2.4254 13.6693 2.65964 14.4122C3.17471 16.0458 4.45433 17.3254 6.08794 17.8405C6.83085 18.0747 7.77209 18.0835 9.99998 18.0835C12.2279 18.0835 13.1691 18.0747 13.912 17.8405C15.5456 17.3254 16.8253 16.0458 17.3403 14.4122C17.5746 13.6693 17.5833 12.7281 17.5833 10.5002C17.5833 8.27227 17.5746 7.33103 17.3403 6.58812C16.8434 5.01206 15.6348 3.76548 14.0833 3.21707V3.8335C14.0833 4.24771 13.7475 4.5835 13.3333 4.5835C12.9191 4.5835 12.5833 4.24771 12.5833 3.8335ZM5.83332 6.41683C5.4191 6.41683 5.08332 6.75262 5.08332 7.16683C5.08332 7.58104 5.4191 7.91683 5.83332 7.91683H14.1666C14.5809 7.91683 14.9166 7.58104 14.9166 7.16683C14.9166 6.75262 14.5809 6.41683 14.1666 6.41683H5.83332ZM7.49998 11.3335C7.49998 11.7937 7.12689 12.1668 6.66665 12.1668C6.20641 12.1668 5.83332 11.7937 5.83332 11.3335C5.83332 10.8733 6.20641 10.5002 6.66665 10.5002C7.12689 10.5002 7.49998 10.8733 7.49998 11.3335ZM6.66665 15.5002C7.12689 15.5002 7.49998 15.1271 7.49998 14.6668C7.49998 14.2066 7.12689 13.8335 6.66665 13.8335C6.20641 13.8335 5.83332 14.2066 5.83332 14.6668C5.83332 15.1271 6.20641 15.5002 6.66665 15.5002ZM10.8333 14.6668C10.8333 15.1271 10.4602 15.5002 9.99998 15.5002C9.53975 15.5002 9.16665 15.1271 9.16665 14.6668C9.16665 14.2066 9.53975 13.8335 9.99998 13.8335C10.4602 13.8335 10.8333 14.2066 10.8333 14.6668ZM13.3333 15.5002C13.7936 15.5002 14.1666 15.1271 14.1666 14.6668C14.1666 14.2066 13.7936 13.8335 13.3333 13.8335C12.8731 13.8335 12.5 14.2066 12.5 14.6668C12.5 15.1271 12.8731 15.5002 13.3333 15.5002ZM10.8333 11.3335C10.8333 11.7937 10.4602 12.1668 9.99998 12.1668C9.53975 12.1668 9.16665 11.7937 9.16665 11.3335C9.16665 10.8733 9.53975 10.5002 9.99998 10.5002C10.4602 10.5002 10.8333 10.8733 10.8333 11.3335ZM13.3333 12.1668C13.7936 12.1668 14.1666 11.7937 14.1666 11.3335C14.1666 10.8733 13.7936 10.5002 13.3333 10.5002C12.8731 10.5002 12.5 10.8733 12.5 11.3335C12.5 11.7937 12.8731 12.1668 13.3333 12.1668Z" fill="#737373"/>
</g>
<defs>
<clipPath id="clip0_304_749">
<rect width="20" height="20" fill="white" transform="translate(0 0.5)"/>
</clipPath>
</defs>
</svg>
