<svg width="25" height="25" viewBox="0 0 25 25" fill="none" xmlns="http://www.w3.org/2000/svg">
<path d="M7.53666 22.0117H16.7867C19.4767 22.0117 21.6567 19.8317 21.6567 17.1417V8.38172C21.6567 5.69172 19.4767 3.51172 16.7867 3.51172H7.53666C4.84666 3.51172 2.66666 5.69172 2.66666 8.38172V17.1317C2.66666 19.8317 4.84666 22.0117 7.53666 22.0117Z" fill="#CD1E4F"/>
<path d="M8.45667 6.30172C8.03667 6.30172 7.70667 5.96172 7.70667 5.55172V2.76172C7.70667 2.35172 8.03667 2.01172 8.45667 2.01172C8.87666 2.01172 9.20667 2.35172 9.20667 2.76172V5.54172C9.20667 5.96172 8.87666 6.30172 8.45667 6.30172Z" fill="#FFF1F3"/>
<path d="M15.8767 6.30172C15.4567 6.30172 15.1267 5.96172 15.1267 5.55172V2.76172C15.1267 2.34172 15.4667 2.01172 15.8767 2.01172C16.2967 2.01172 16.6267 2.35172 16.6267 2.76172V5.54172C16.6267 5.96172 16.2967 6.30172 15.8767 6.30172Z" fill="#FFF1F3"/>
<path d="M14.9467 13.7217H7.52666C7.10666 13.7217 6.77666 13.3817 6.77666 12.9717C6.77666 12.5617 7.11666 12.2217 7.52666 12.2217H14.9467C15.3667 12.2217 15.6967 12.5617 15.6967 12.9717C15.6967 13.3817 15.3667 13.7217 14.9467 13.7217Z" fill="#FFF1F3"/>
<path d="M12.1667 17.4316H7.52666C7.10666 17.4316 6.77666 17.0916 6.77666 16.6816C6.77666 16.2616 7.11666 15.9316 7.52666 15.9316H12.1667C12.5867 15.9316 12.9167 16.2716 12.9167 16.6816C12.9167 17.0916 12.5867 17.4316 12.1667 17.4316Z" fill="#FFF1F3"/>
</svg>
