<svg width="25" height="25" viewBox="0 0 25 25" fill="none" xmlns="http://www.w3.org/2000/svg">
<g clip-path="url(#clip0_304_2926)">
<path d="M24.7934 18.6663C24.7991 18.665 24.8051 18.665 24.8109 18.6663C24.8201 18.4528 24.8044 18.239 24.7639 18.0292C24.5674 17.1318 24.1794 16.3232 23.5292 15.673C22.1211 14.2655 20.4364 13.8481 18.5227 14.3519C18.4542 14.3772 18.3795 14.3805 18.309 14.3613C18.2386 14.3422 18.1759 14.3014 18.1297 14.2449C17.8656 13.9683 17.5909 13.7017 17.3205 13.4313C15.0976 11.2038 12.8737 8.97739 10.6487 6.75199C10.5029 6.60618 10.4609 6.48101 10.5267 6.27888C10.7474 5.56567 10.7887 4.80899 10.6468 4.07601C10.3158 2.27241 9.30507 1.00075 7.6041 0.294208C7.16965 0.123697 6.71036 0.0249906 6.24421 0.00195312H6.19727C5.88851 0.0740113 5.56731 0.0740113 5.25855 0.00195312H5.11774C4.99072 0.0332928 4.86055 0.0500883 4.72974 0.0520176C4.29167 0.0839341 4.00129 0.321741 3.92118 0.706617C3.8586 1.01952 4.01005 1.25108 4.21469 1.4576C4.97359 2.22318 5.73521 2.98563 6.49954 3.74495C6.56583 3.80487 6.61809 3.87867 6.6526 3.9611C6.68711 4.04352 6.70301 4.13255 6.69918 4.22182C6.68979 4.66678 6.69918 5.11298 6.69605 5.55856C6.69605 5.84393 6.68791 5.8527 6.41193 5.85332C5.95946 5.85332 5.507 5.84831 5.05453 5.85645C4.96898 5.85937 4.88384 5.84326 4.80527 5.80927C4.7267 5.77529 4.65666 5.72429 4.60019 5.65994C4.11331 5.16367 3.62017 4.67366 3.12828 4.1824C2.83602 3.88951 2.55002 3.58975 2.25214 3.30625C1.93547 3.00712 1.57876 2.96957 1.25083 3.19298C1.02804 3.34506 0.937923 3.57661 0.900999 3.83131C0.845136 4.26513 0.824208 4.70273 0.838418 5.13989C0.846503 6.06104 1.12982 6.95872 1.65198 7.71762C2.81912 9.45551 4.9544 10.2528 7.01772 9.7121C7.3131 9.63512 7.48895 9.69708 7.69297 9.89984C10.0932 12.3159 12.4976 14.7274 14.9061 17.1343C14.9687 17.1968 15.025 17.2594 15.0882 17.317C15.1405 17.3588 15.178 17.4162 15.1952 17.4808C15.2125 17.5455 15.2085 17.614 15.184 17.6762C15.0119 18.1875 14.9706 18.7138 14.9881 19.2495C15.0457 21.0062 15.8204 22.3586 17.278 23.3211C17.8999 23.7285 18.6163 23.969 19.3582 24.0195H19.499C19.7591 23.9453 20.0348 23.9453 20.295 24.0195H20.4352C20.6555 23.9707 20.882 23.9907 21.1036 23.9494C21.4133 23.8912 21.6349 23.7185 21.7388 23.4237C21.8426 23.1289 21.7494 22.8555 21.5397 22.6245C21.4815 22.5619 21.4196 22.4994 21.3589 22.4405C20.6361 21.7165 19.9151 20.9905 19.1886 20.2696C19.1252 20.2121 19.0752 20.1415 19.0419 20.0627C19.0086 19.9839 18.9929 19.8989 18.9958 19.8134C19.0037 19.3519 19.0037 18.8905 18.9958 18.4291C18.9921 18.2413 19.0528 18.1625 19.2493 18.1662C19.7174 18.1756 20.188 18.1737 20.6542 18.1662C20.736 18.1636 20.8173 18.179 20.8924 18.2115C20.9675 18.244 21.0344 18.2926 21.0885 18.354C21.2932 18.5693 21.506 18.7758 21.7144 18.986C22.2889 19.5605 22.859 20.1394 23.4385 20.7089C23.65 20.9167 23.8966 21.0312 24.2032 20.9386C24.5318 20.8403 24.7039 20.6107 24.7633 20.2834C24.799 20.0793 24.8152 19.8722 24.8115 19.6651H24.7952L24.7934 18.6663Z" fill="#CD1E4F"/>
<path d="M10.3251 14.4652C9.5528 13.6909 8.78096 12.9166 8.00954 12.1422C7.93757 12.0702 7.89126 11.9933 7.77361 12.1115C5.78602 14.1142 3.77903 16.0936 1.80772 18.11C0.67374 19.2696 0.54169 21.1765 1.46852 22.4619C1.51897 22.3892 1.57372 22.3196 1.63249 22.2535C3.33136 20.5492 5.03087 18.8459 6.731 17.1437C6.78909 17.0803 6.85185 17.0213 6.91875 16.9672C7.01968 16.8859 7.1417 16.8351 7.2705 16.8207C7.3993 16.8063 7.52954 16.8289 7.64594 16.8859C7.76192 16.9354 7.86127 17.0172 7.93225 17.1214C8.00323 17.2257 8.04286 17.3481 8.04646 17.4742C8.06774 17.7364 7.93695 17.9316 7.75734 18.1106C6.04427 19.8212 4.33267 21.5346 2.62253 23.251C2.55413 23.3101 2.48179 23.3645 2.406 23.4138C2.71188 23.6204 3.0471 23.7799 3.40041 23.8869C3.55123 23.9357 3.72396 23.9138 3.85601 24.0233H4.79473C4.80975 24.0083 4.82352 23.9826 4.83979 23.9807C5.63833 23.89 6.31045 23.537 6.87369 22.9751C8.82414 21.0263 10.7736 19.0756 12.7219 17.1231C12.8371 17.0085 12.8164 16.9535 12.715 16.8521C11.9127 16.0598 11.1198 15.2613 10.3251 14.4652Z" fill="#CD1E4F"/>
<path d="M24.5636 1.07773C24.4347 0.964457 24.3339 0.822397 24.215 0.70224C23.9422 0.423753 23.7213 0.0695411 23.2882 0.00195312H22.9603C22.9565 0.00883709 22.954 0.0194726 22.9484 0.0219758C21.5991 0.696604 20.2494 1.37019 18.8994 2.04273C18.6578 2.16289 18.5038 2.34375 18.4657 2.61285C18.3217 3.61749 18.1799 4.62234 18.0401 5.6274C18.0259 5.7663 17.9634 5.89583 17.8636 5.9935C16.8942 6.95726 15.9324 7.92852 14.9624 8.89165C14.8535 8.99929 14.8497 9.05812 14.9624 9.16325C15.2077 9.39168 15.4474 9.62824 15.6733 9.87606C15.7909 10.005 15.8541 10.005 15.9793 9.87606C16.9337 8.90792 17.8981 7.95043 18.8543 6.98479C18.951 6.88445 19.0799 6.82131 19.2185 6.80644C20.1754 6.67314 21.1304 6.52357 22.0885 6.40466C22.4753 6.35648 22.6987 6.16185 22.8645 5.82453C23.5129 4.50469 24.1787 3.19235 24.834 1.87689V1.54897C24.8051 1.36391 24.7088 1.19608 24.5636 1.07773Z" fill="#CD1E4F"/>
<path d="M24.8108 18.665V18.7276V19.6113C24.8108 19.63 24.8108 19.6494 24.8108 19.6688H24.8158L24.8346 19.6595V18.6769C24.8284 18.6702 24.8199 18.666 24.8108 18.665Z" fill="#CD1E4F"/>
<path d="M24.809 18.7276V18.665C24.8032 18.6638 24.7973 18.6638 24.7915 18.665V19.6663H24.8078C24.8078 19.6469 24.8078 19.6275 24.8078 19.6087L24.809 18.7276Z" fill="#CD1E4F"/>
<path d="M6.19531 0H5.25659C5.56824 0.0396403 5.88366 0.0396403 6.19531 0Z" fill="#CD1E4F"/>
<path d="M6.19531 0C5.88366 0.0396403 5.56824 0.0396403 5.25659 0C5.56535 0.0720582 5.88656 0.0720582 6.19531 0Z" fill="#CD1E4F"/>
<path d="M19.4951 24.0232H20.2912C20.0273 23.9832 19.759 23.9832 19.4951 24.0232Z" fill="#CD1E4F"/>
<path d="M19.4951 24.0234C19.759 23.9833 20.0273 23.9833 20.2912 24.0234C20.031 23.9492 19.7553 23.9492 19.4951 24.0234Z" fill="#CD1E4F"/>
</g>
<defs>
<clipPath id="clip0_304_2926">
<rect width="24" height="24.0225" fill="white" transform="translate(0.833374)"/>
</clipPath>
</defs>
</svg>
