<svg width="24" height="25" viewBox="0 0 24 25" fill="none" xmlns="http://www.w3.org/2000/svg">
<path d="M13.9931 3.21066L13.9934 3.21085L19.7533 7.24078C19.7533 7.2408 19.7533 7.24083 19.7534 7.24085C20.2226 7.56932 20.6668 8.10788 20.9943 8.73506C21.3217 9.36227 21.51 10.0354 21.51 10.6112V17.3912C21.51 19.665 19.6638 21.5112 17.39 21.5112H6.60999C4.33754 21.5112 2.48999 19.6564 2.48999 17.3812V10.4812C2.48999 9.94673 2.66038 9.30765 2.95857 8.70203C3.25662 8.09668 3.66106 7.56805 4.08751 7.23542L4.08761 7.23534L9.09624 3.32641C9.09645 3.32624 9.09667 3.32607 9.09689 3.3259C10.4337 2.2906 12.6028 2.23658 13.9931 3.21066Z" fill="#CD1E4F" stroke="#CD1E4F"/>
<path d="M12 18.2612C11.8661 18.2612 11.75 18.1451 11.75 18.0112V15.0112C11.75 14.8774 11.8661 14.7612 12 14.7612C12.1339 14.7612 12.25 14.8774 12.25 15.0112V18.0112C12.25 18.1451 12.1339 18.2612 12 18.2612Z" fill="#FFF1F3" stroke="#FFF1F3"/>
</svg>
