<svg width="25" height="25" viewBox="0 0 25 25" fill="none" xmlns="http://www.w3.org/2000/svg">
<path d="M7.53669 22.0112H16.7867C19.4767 22.0112 21.6567 19.8312 21.6567 17.1412V8.38123C21.6567 5.69123 19.4767 3.51123 16.7867 3.51123H7.53669C4.84669 3.51123 2.66669 5.69123 2.66669 8.38123V17.1312C2.66669 19.8312 4.84669 22.0112 7.53669 22.0112Z" fill="#D4D4D4"/>
<path d="M8.45667 6.30123C8.03667 6.30123 7.70667 5.96123 7.70667 5.55123V2.76123C7.70667 2.35123 8.03667 2.01123 8.45667 2.01123C8.87666 2.01123 9.20667 2.35123 9.20667 2.76123V5.54123C9.20667 5.96123 8.87666 6.30123 8.45667 6.30123Z" fill="#A3A3A3"/>
<path d="M15.8767 6.30123C15.4567 6.30123 15.1267 5.96123 15.1267 5.55123V2.76123C15.1267 2.34123 15.4667 2.01123 15.8767 2.01123C16.2967 2.01123 16.6267 2.35123 16.6267 2.76123V5.54123C16.6267 5.96123 16.2967 6.30123 15.8767 6.30123Z" fill="#A3A3A3"/>
<path d="M14.9467 13.7212H7.52667C7.10667 13.7212 6.77667 13.3812 6.77667 12.9712C6.77667 12.5612 7.11667 12.2212 7.52667 12.2212H14.9467C15.3667 12.2212 15.6967 12.5612 15.6967 12.9712C15.6967 13.3812 15.3667 13.7212 14.9467 13.7212Z" fill="#A3A3A3"/>
<path d="M12.1667 17.4312H7.52667C7.10667 17.4312 6.77667 17.0912 6.77667 16.6812C6.77667 16.2612 7.11667 15.9312 7.52667 15.9312H12.1667C12.5867 15.9312 12.9167 16.2712 12.9167 16.6812C12.9167 17.0912 12.5867 17.4312 12.1667 17.4312Z" fill="#A3A3A3"/>
</svg>
