<svg width="25" height="25" viewBox="0 0 25 25" fill="none" xmlns="http://www.w3.org/2000/svg">
<g clip-path="url(#clip0_304_1432)">
<path d="M24.7932 18.6663C24.799 18.665 24.805 18.665 24.8108 18.6663C24.82 18.4528 24.8043 18.239 24.7638 18.0292C24.5673 17.1318 24.1793 16.3232 23.5291 15.673C22.121 14.2655 20.4363 13.8481 18.5226 14.3519C18.4541 14.3772 18.3794 14.3805 18.3089 14.3613C18.2385 14.3422 18.1758 14.3014 18.1296 14.2449C17.8655 13.9683 17.5907 13.7017 17.3204 13.4313C15.0975 11.2038 12.8736 8.97739 10.6486 6.75199C10.5028 6.60618 10.4608 6.48101 10.5265 6.27888C10.7473 5.56567 10.7886 4.80899 10.6467 4.07601C10.3156 2.27241 9.30495 1.00075 7.60398 0.294208C7.16953 0.123697 6.71023 0.0249906 6.24409 0.00195312H6.19715C5.88839 0.0740113 5.56719 0.0740113 5.25843 0.00195312H5.11762C4.9906 0.0332928 4.86043 0.0500883 4.72961 0.0520176C4.29154 0.0839341 4.00116 0.321741 3.92106 0.706617C3.85848 1.01952 4.00993 1.25108 4.21457 1.4576C4.97347 2.22318 5.73509 2.98563 6.49942 3.74495C6.56571 3.80487 6.61797 3.87867 6.65248 3.9611C6.68698 4.04352 6.70289 4.13255 6.69905 4.22182C6.68967 4.66678 6.69905 5.11298 6.69593 5.55856C6.69593 5.84393 6.68779 5.8527 6.4118 5.85332C5.95934 5.85332 5.50688 5.84831 5.05441 5.85645C4.96886 5.85937 4.88372 5.84326 4.80515 5.80927C4.72658 5.77529 4.65653 5.72429 4.60007 5.65994C4.11319 5.16367 3.62004 4.67366 3.12815 4.1824C2.8359 3.88951 2.5499 3.58975 2.25201 3.30625C1.93535 3.00712 1.57864 2.96957 1.25071 3.19298C1.02792 3.34506 0.9378 3.57661 0.900877 3.83131C0.845014 4.26513 0.824086 4.70273 0.838296 5.13989C0.846381 6.06104 1.1297 6.95872 1.65186 7.71762C2.819 9.45551 4.95428 10.2528 7.01759 9.7121C7.31298 9.63512 7.48883 9.69708 7.69285 9.89984C10.0931 12.3159 12.4974 14.7274 14.906 17.1343C14.9686 17.1968 15.0249 17.2594 15.0881 17.317C15.1404 17.3588 15.1779 17.4162 15.1951 17.4808C15.2123 17.5455 15.2084 17.614 15.1839 17.6762C15.0118 18.1875 14.9704 18.7138 14.988 19.2495C15.0455 21.0062 15.8203 22.3586 17.2778 23.3211C17.8998 23.7285 18.6162 23.969 19.358 24.0195H19.4988C19.759 23.9453 20.0347 23.9453 20.2949 24.0195H20.4351C20.6554 23.9707 20.8819 23.9907 21.1034 23.9494C21.4132 23.8912 21.6348 23.7185 21.7386 23.4237C21.8425 23.1289 21.7493 22.8555 21.5396 22.6245C21.4814 22.5619 21.4195 22.4994 21.3588 22.4405C20.636 21.7165 19.915 20.9905 19.1884 20.2696C19.1251 20.2121 19.0751 20.1415 19.0418 20.0627C19.0085 19.9839 18.9928 19.8989 18.9957 19.8134C19.0036 19.3519 19.0036 18.8905 18.9957 18.4291C18.9919 18.2413 19.0526 18.1625 19.2491 18.1662C19.7173 18.1756 20.1879 18.1737 20.6541 18.1662C20.7359 18.1636 20.8172 18.179 20.8923 18.2115C20.9673 18.244 21.0343 18.2926 21.0884 18.354C21.2931 18.5693 21.5058 18.7758 21.7142 18.986C22.2887 19.5605 22.8588 20.1394 23.4383 20.7089C23.6499 20.9167 23.8964 21.0312 24.2031 20.9386C24.5316 20.8403 24.7037 20.6107 24.7632 20.2834C24.7989 20.0793 24.815 19.8722 24.8114 19.6651H24.7951L24.7932 18.6663Z" fill="#D4D4D4"/>
<path d="M10.3251 14.4652C9.5528 13.6909 8.78096 12.9166 8.00954 12.1422C7.93757 12.0702 7.89126 11.9933 7.77361 12.1115C5.78602 14.1142 3.77903 16.0936 1.80772 18.11C0.67374 19.2696 0.54169 21.1765 1.46852 22.4619C1.51897 22.3892 1.57372 22.3196 1.63249 22.2535C3.33136 20.5492 5.03087 18.8459 6.731 17.1437C6.78909 17.0803 6.85185 17.0213 6.91875 16.9672C7.01968 16.8859 7.1417 16.8351 7.2705 16.8207C7.3993 16.8063 7.52954 16.8289 7.64594 16.8859C7.76192 16.9354 7.86127 17.0172 7.93225 17.1214C8.00323 17.2257 8.04286 17.3481 8.04646 17.4742C8.06774 17.7364 7.93695 17.9316 7.75734 18.1106C6.04427 19.8212 4.33267 21.5346 2.62253 23.251C2.55413 23.3101 2.48179 23.3645 2.406 23.4138C2.71188 23.6204 3.0471 23.7799 3.40041 23.8869C3.55123 23.9357 3.72396 23.9138 3.85601 24.0233H4.79473C4.80975 24.0083 4.82352 23.9826 4.83979 23.9807C5.63833 23.89 6.31045 23.537 6.87369 22.9751C8.82414 21.0263 10.7736 19.0756 12.7219 17.1231C12.8371 17.0085 12.8164 16.9535 12.715 16.8521C11.9127 16.0598 11.1198 15.2613 10.3251 14.4652Z" fill="#D4D4D4"/>
<path d="M24.5636 1.07773C24.4347 0.964457 24.3339 0.822397 24.215 0.70224C23.9422 0.423753 23.7213 0.0695411 23.2882 0.00195312H22.9603C22.9565 0.00883709 22.954 0.0194726 22.9484 0.0219758C21.5991 0.696604 20.2494 1.37019 18.8994 2.04273C18.6578 2.16289 18.5038 2.34375 18.4657 2.61285C18.3217 3.61749 18.1799 4.62234 18.0401 5.6274C18.0259 5.7663 17.9634 5.89583 17.8636 5.9935C16.8942 6.95726 15.9324 7.92852 14.9624 8.89165C14.8535 8.99929 14.8497 9.05812 14.9624 9.16325C15.2077 9.39168 15.4474 9.62824 15.6733 9.87606C15.7909 10.005 15.8541 10.005 15.9793 9.87606C16.9337 8.90792 17.8981 7.95043 18.8543 6.98479C18.951 6.88445 19.0799 6.82131 19.2185 6.80644C20.1754 6.67314 21.1304 6.52357 22.0885 6.40466C22.4753 6.35648 22.6987 6.16185 22.8645 5.82453C23.5129 4.50469 24.1787 3.19235 24.834 1.87689V1.54897C24.8051 1.36391 24.7088 1.19608 24.5636 1.07773Z" fill="#D4D4D4"/>
<path d="M24.8108 18.665V18.7276V19.6113C24.8108 19.63 24.8108 19.6494 24.8108 19.6688H24.8158L24.8346 19.6595V18.6769C24.8284 18.6702 24.8199 18.666 24.8108 18.665Z" fill="#D4D4D4"/>
<path d="M24.8089 18.7276V18.665C24.8031 18.6638 24.7972 18.6638 24.7914 18.665V19.6663H24.8077C24.8077 19.6469 24.8077 19.6275 24.8077 19.6087L24.8089 18.7276Z" fill="#D4D4D4"/>
<path d="M6.19531 0H5.25659C5.56824 0.0396403 5.88366 0.0396403 6.19531 0Z" fill="#D4D4D4"/>
<path d="M6.19531 0C5.88366 0.0396403 5.56824 0.0396403 5.25659 0C5.56535 0.0720582 5.88656 0.0720582 6.19531 0Z" fill="#D4D4D4"/>
<path d="M19.4951 24.0232H20.2912C20.0273 23.9832 19.759 23.9832 19.4951 24.0232Z" fill="#D4D4D4"/>
<path d="M19.4951 24.0234C19.759 23.9833 20.0273 23.9833 20.2912 24.0234C20.031 23.9492 19.7553 23.9492 19.4951 24.0234Z" fill="#D4D4D4"/>
</g>
<defs>
<clipPath id="clip0_304_1432">
<rect width="24" height="24.0225" fill="white" transform="translate(0.833313)"/>
</clipPath>
</defs>
</svg>
