<svg width="25" height="25" viewBox="0 0 25 25" fill="none" xmlns="http://www.w3.org/2000/svg">
<path d="M12.5 2.01123C9.88 2.01123 7.75 4.14123 7.75 6.76123C7.75 9.33123 9.76 11.4112 12.38 11.5012C12.46 11.4912 12.54 11.4912 12.6 11.5012C12.62 11.5012 12.63 11.5012 12.65 11.5012C12.66 11.5012 12.66 11.5012 12.67 11.5012C15.23 11.4112 17.24 9.33123 17.25 6.76123C17.25 4.14123 15.12 2.01123 12.5 2.01123Z" fill="#CD1E4F"/>
<path d="M17.58 14.1714C14.79 12.3114 10.24 12.3114 7.42999 14.1714C6.15999 15.0114 5.45999 16.1614 5.45999 17.3914C5.45999 18.6214 6.15999 19.7614 7.41999 20.6014C8.81999 21.5414 10.66 22.0114 12.5 22.0114C14.34 22.0114 16.18 21.5414 17.58 20.6014C18.84 19.7514 19.54 18.6114 19.54 17.3714C19.53 16.1514 18.84 15.0014 17.58 14.1714Z" fill="#CD1E4F"/>
<path d="M14.33 18.0812H10.68C10.3 18.0812 9.98999 17.7712 9.98999 17.3912C9.98999 17.0112 10.3 16.7012 10.68 16.7012H14.33C14.71 16.7012 15.02 17.0112 15.02 17.3912C15.01 17.7712 14.71 18.0812 14.33 18.0812Z" fill="#FFF1F3"/>
</svg>
