<svg width="24" height="25" viewBox="0 0 24 25" fill="none" xmlns="http://www.w3.org/2000/svg">
<path d="M13.9931 3.21091L13.9934 3.2111L19.7533 7.24103C19.7533 7.24105 19.7533 7.24107 19.7534 7.2411C20.2226 7.56956 20.6668 8.10813 20.9943 8.73531C21.3217 9.36252 21.51 10.0357 21.51 10.6114V17.3914C21.51 19.6653 19.6638 21.5114 17.39 21.5114H6.60999C4.33754 21.5114 2.48999 19.6567 2.48999 17.3814V10.4814C2.48999 9.94697 2.66038 9.3079 2.95857 8.70228C3.25662 8.09693 3.66106 7.56829 4.08751 7.23566L4.08761 7.23558L9.09624 3.32665C9.09645 3.32648 9.09667 3.32631 9.09689 3.32614C10.4337 2.29085 12.6028 2.23682 13.9931 3.21091Z" fill="#D4D4D4" stroke="#D4D4D4"/>
<path d="M12 18.2612C11.8661 18.2612 11.75 18.1451 11.75 18.0112V15.0112C11.75 14.8774 11.8661 14.7612 12 14.7612C12.1339 14.7612 12.25 14.8774 12.25 15.0112V18.0112C12.25 18.1451 12.1339 18.2612 12 18.2612Z" fill="#FFF1F3" stroke="#FFF1F3"/>
</svg>
