<svg width="30" height="15" viewBox="0 0 30 15" fill="none" xmlns="http://www.w3.org/2000/svg">
<path d="M27.4858 5.08991C27.8246 5.44282 28.1799 5.77929 28.5179 6.13298C28.6298 6.25035 28.6955 6.25817 28.8121 6.13298C29.1416 5.78633 29.4788 5.44595 29.8294 5.11574C29.9655 4.98741 29.9773 4.91855 29.8348 4.78083C29.2443 4.207 28.6627 3.62613 28.0899 3.03822C27.9334 2.87468 27.7933 2.8426 27.5734 2.89894C24.6571 3.63917 21.7368 4.36768 18.8189 5.104C18.7433 5.13238 18.6607 5.13664 18.5825 5.11618C18.5043 5.09573 18.4344 5.05156 18.3823 4.98975C18.0857 4.66893 17.7602 4.3755 17.4629 4.05624C17.4022 3.98785 17.3266 3.9343 17.2419 3.89971C17.1573 3.86512 17.0658 3.85041 16.9746 3.85671C15.3611 3.86375 13.7484 3.85671 12.1357 3.8661C11.9228 3.8661 11.8407 3.82228 11.8579 3.59614C11.8759 3.31551 11.8759 3.03402 11.8579 2.75339C11.8469 2.55855 11.8931 2.485 12.1075 2.49204C12.638 2.50926 13.1686 2.49204 13.6991 2.50065C13.8415 2.50065 13.9025 2.47013 13.8994 2.31285C13.89 1.81362 13.8916 1.31361 13.8994 0.814379C13.8994 0.666488 13.8564 0.620321 13.7061 0.621103C11.8542 0.625798 10.0023 0.625798 8.15043 0.621103C7.98768 0.621103 7.93603 0.664142 7.93994 0.83003C7.95012 1.30813 7.95481 1.7878 7.93994 2.2659C7.9329 2.46935 8.00489 2.50613 8.18799 2.50065C8.6974 2.48969 9.20523 2.50691 9.71698 2.49204C9.92669 2.48578 10.0159 2.52804 9.99633 2.75809C9.97385 3.01843 9.97385 3.28023 9.99633 3.54058C10.0182 3.79489 9.94547 3.87236 9.67864 3.87001C8.03541 3.85671 6.39217 3.86218 4.74894 3.86375C3.16831 3.86375 1.58715 3.86714 0.00547791 3.87392V9.74261C1.07671 9.74261 2.14872 9.75513 3.21996 9.74261C3.4547 9.74261 3.53295 9.79112 3.53295 10.0454C3.51887 11.3037 3.53765 12.5635 3.51887 13.8217C3.51417 14.1207 3.61042 14.1723 3.88351 14.1723C8.52629 14.1634 13.167 14.1634 17.8056 14.1723C17.9265 14.1807 18.0474 14.158 18.157 14.1064C18.2666 14.0547 18.3612 13.9759 18.4316 13.8773C20.6226 11.1443 22.8203 8.41472 25.0249 5.68852C25.1509 5.51172 25.3384 5.38837 25.5507 5.34266C26.0578 5.23702 26.5617 5.10791 27.0593 4.96315C27.2448 4.90916 27.3583 4.95689 27.4858 5.08991ZM3.52121 6.80514C3.52121 7.08527 3.51261 7.3654 3.52121 7.64475C3.52825 7.80829 3.50009 7.88732 3.30837 7.8795C2.89365 7.86463 2.47815 7.86932 2.06343 7.8795C1.92102 7.8795 1.8639 7.85133 1.86624 7.69405C1.87563 7.10248 1.87563 6.51118 1.86624 5.92014C1.86624 5.76364 1.91632 5.72921 2.06109 5.73234C2.47581 5.74095 2.89131 5.74564 3.30603 5.73234C3.49617 5.72608 3.52747 5.80198 3.52043 5.96709C3.51495 6.24409 3.52121 6.525 3.52121 6.80514Z" fill="#262626"/>
</svg>
