<svg width="25" height="25" viewBox="0 0 25 25" fill="none" xmlns="http://www.w3.org/2000/svg">
<g clip-path="url(#clip0_103_5062)">
<path d="M24.2124 20.1456C23.9314 19.8445 23.6482 19.5479 23.3429 19.2734C23.1637 19.114 23.1703 19.0034 23.2876 18.8042C24.4173 16.8742 25.0083 14.6761 24.999 12.4395C24.9896 10.203 24.3803 8.00991 23.2345 6.08944C23.2117 6.0651 23.1947 6.03593 23.1848 6.00409C23.1748 5.97225 23.1722 5.93858 23.1771 5.90559C23.182 5.87259 23.1943 5.84113 23.213 5.81355C23.2318 5.78598 23.2565 5.763 23.2854 5.74634C23.5951 5.46079 23.9026 5.17302 24.1925 4.86091C24.7338 4.32286 25.0392 3.59171 25.0417 2.82829C25.0442 2.06488 24.7435 1.33174 24.2057 0.790163C23.668 0.248587 22.9372 -0.0570642 22.1742 -0.059555C21.4112 -0.0620457 20.6784 0.238829 20.1372 0.776882C19.8385 1.05579 19.542 1.34355 19.2677 1.64903C19.244 1.684 19.2132 1.71351 19.1772 1.73559C19.1412 1.75767 19.1009 1.7718 19.059 1.77704C19.0171 1.78228 18.9746 1.77851 18.9343 1.76597C18.8939 1.75344 18.8568 1.73244 18.8252 1.70437C17.1478 0.71473 15.2566 0.144475 13.3119 0.0419766C10.7904 -0.134942 8.27475 0.460334 6.09954 1.74864C6.07782 1.76732 6.0524 1.7812 6.02494 1.78937C5.99748 1.79755 5.96861 1.79982 5.94021 1.79606C5.9118 1.7923 5.88451 1.78258 5.86012 1.76754C5.83573 1.7525 5.81479 1.73249 5.79866 1.7088C5.47123 1.37012 5.13495 1.02922 4.79424 0.714895C4.23762 0.240164 3.52414 -0.00994196 2.7931 0.0133884C2.06206 0.0367187 1.36596 0.331811 0.840704 0.84107C0.321231 1.3592 0.0210752 2.05755 0.00253759 2.79121C-0.016 3.52486 0.248501 4.2375 0.741144 4.78123C1.0376 5.10883 1.34734 5.42316 1.67256 5.71978C1.84292 5.87472 1.82964 5.9854 1.72123 6.16249C0.592811 8.08707 0.000137401 10.2789 0.00480615 12.5102C0.00947491 14.7415 0.611314 16.9308 1.74778 18.8506C1.77113 18.8776 1.78852 18.9091 1.79879 18.9432C1.80907 18.9774 1.81201 19.0133 1.80741 19.0486C1.80281 19.084 1.79078 19.1179 1.77211 19.1483C1.75344 19.1786 1.72857 19.2047 1.69911 19.2247C1.3643 19.542 1.03981 19.8696 0.725656 20.2076C0.294509 20.6757 0.0415679 21.2806 0.0110582 21.9164C-0.0262112 22.4843 0.105653 23.0505 0.389976 23.5434C0.674298 24.0363 1.0983 24.4338 1.6084 24.6856C2.13325 24.9418 2.72313 25.0336 3.30097 24.9491C3.87882 24.8646 4.41774 24.6077 4.84734 24.2119C5.16371 23.9197 5.46681 23.612 5.76327 23.2999C5.78211 23.2695 5.8073 23.2436 5.83709 23.2239C5.86689 23.2042 5.90058 23.1911 5.93588 23.1857C5.97119 23.1802 6.00726 23.1824 6.04162 23.1922C6.07597 23.202 6.10782 23.2191 6.13495 23.2423C8.06861 24.3625 10.2634 24.9523 12.4978 24.9523C14.7321 24.9523 16.927 24.3625 18.8606 23.2423C19.0089 23.1538 19.104 23.1428 19.2345 23.2844C19.5332 23.6076 19.8496 23.9153 20.1703 24.2163C20.645 24.6707 21.2666 24.94 21.9226 24.9756C22.5004 25.0163 23.077 24.8816 23.577 24.589C24.077 24.2964 24.4771 23.8595 24.7248 23.3356C24.9725 22.8117 25.0563 22.2252 24.9653 21.6528C24.8742 21.0805 24.6126 20.549 24.2146 20.1279L24.2124 20.1456ZM12.6903 19.8644C10.7361 19.9156 8.84166 19.1881 7.42356 17.8419C6.00547 16.4957 5.17986 14.641 5.12832 12.6859C5 8.65938 8.20574 5.27263 12.3097 5.11989C16.3208 4.96937 19.7212 8.19897 19.8695 12.3029C20.0177 16.3205 16.7965 19.7427 12.6903 19.8644Z" fill="black"/>
<path d="M12.4978 7.03906C11.4197 7.03907 10.3659 7.35875 9.46935 7.95772C8.57281 8.5567 7.87381 9.4081 7.46066 10.4044C7.0475 11.4006 6.93873 12.497 7.14808 13.5551C7.35743 14.6132 7.87552 15.5855 8.63688 16.3491C9.39824 17.1127 10.3687 17.6334 11.4257 17.8455C12.4827 18.0575 13.5788 17.9514 14.5756 17.5404C15.5723 17.1295 16.4249 16.4321 17.0258 15.5366C17.6266 14.641 17.9487 13.5874 17.9513 12.5088C17.949 11.0611 17.3741 9.67325 16.3522 8.64837C15.3304 7.62348 13.9447 7.04491 12.4978 7.03906ZM12.4978 16.0261C11.7977 16.0261 11.1133 15.8184 10.5312 15.4293C9.94904 15.0401 9.49533 14.487 9.22741 13.8398C8.95949 13.1926 8.88939 12.4805 9.02598 11.7935C9.16256 11.1065 9.4997 10.4754 9.99475 9.98007C10.4898 9.48476 11.1205 9.14745 11.8072 9.01079C12.4939 8.87413 13.2056 8.94426 13.8524 9.21233C14.4992 9.48039 15.0521 9.93434 15.441 10.5168C15.83 11.0992 16.0376 11.784 16.0376 12.4844C16.0376 12.9497 15.946 13.4105 15.7679 13.8403C15.5899 14.2701 15.329 14.6607 15 14.9896C14.6711 15.3185 14.2806 15.5793 13.8509 15.7572C13.4211 15.935 12.9606 16.0264 12.4956 16.0261H12.4978Z" fill="black"/>
<path d="M12.5022 10.8887C12.1845 10.8882 11.8739 10.9821 11.6095 11.1583C11.3451 11.3345 11.1389 11.5852 11.0169 11.8787C10.8949 12.1722 10.8627 12.4953 10.9242 12.8071C10.9858 13.1189 11.1384 13.4055 11.3627 13.6305C11.587 13.8556 11.873 14.009 12.1845 14.0715C12.496 14.1339 12.819 14.1025 13.1126 13.9813C13.4063 13.8601 13.6574 13.6544 13.8343 13.3904C14.0111 13.1264 14.1057 12.8158 14.1062 12.4979C14.1044 12.0724 13.935 11.6648 13.6347 11.3635C13.3344 11.0622 12.9275 10.8916 12.5022 10.8887Z" fill="black"/>
</g>
<defs>
<clipPath id="clip0_103_5062">
<rect width="25" height="25" fill="white"/>
</clipPath>
</defs>
</svg>
