<svg width="28" height="24" viewBox="0 0 28 24" fill="none" xmlns="http://www.w3.org/2000/svg">
<g clip-path="url(#clip0_101_5007)">
<path d="M2.77089 8.24121H25.2796C26.1624 8.24121 26.5757 8.63726 26.5757 9.47934C26.5757 13.4473 26.5757 17.4146 26.5757 21.3812C26.5757 22.9951 25.5202 24 23.8262 24H4.1835C2.49536 24 1.44172 22.9914 1.43978 21.3757V9.50525C1.43201 8.62616 1.8395 8.24121 2.77089 8.24121ZM18.3368 15.7755C18.591 15.7755 18.6686 15.831 18.6705 16.0864C18.6658 16.2256 18.6908 16.3643 18.744 16.494C18.7972 16.6238 18.8775 16.7418 18.9801 16.841C19.0826 16.9402 19.2052 17.0185 19.3405 17.0711C19.4758 17.1236 19.6208 17.1494 19.7669 17.1468C19.9099 17.1436 20.0507 17.1129 20.181 17.0566C20.3112 17.0004 20.4283 16.9197 20.5252 16.8193C20.6221 16.719 20.6968 16.6011 20.7448 16.4726C20.7929 16.3441 20.8134 16.2077 20.805 16.0716C20.805 15.8217 20.8865 15.7773 21.129 15.7773C21.3949 15.7879 21.6555 15.7043 21.8608 15.5427C22.066 15.3812 22.2014 15.1529 22.2409 14.9019C22.277 14.6719 22.2305 14.4371 22.1089 14.2355C21.9874 14.0339 21.798 13.8774 21.5714 13.7915C21.4503 13.7377 21.3164 13.7153 21.1834 13.7267C20.8923 13.7637 20.8089 13.6693 20.8089 13.3806C20.8134 13.22 20.7776 13.0606 20.7044 12.9159C20.6311 12.7712 20.5226 12.6453 20.388 12.5487C20.2533 12.4521 20.0963 12.3877 19.9302 12.3608C19.7641 12.334 19.5937 12.3454 19.4331 12.3942C19.2061 12.4604 19.0086 12.5967 18.8717 12.7816C18.7347 12.9665 18.666 13.1896 18.6764 13.4158C18.6764 13.6786 18.589 13.7286 18.3368 13.7286C18.1938 13.7241 18.0514 13.7471 17.9179 13.7963C17.7845 13.8455 17.6628 13.9198 17.5601 14.0148C17.4575 14.1098 17.3759 14.2235 17.3203 14.3492C17.2647 14.4749 17.2363 14.61 17.2366 14.7465C17.2368 14.8832 17.2656 15.0186 17.3212 15.1447C17.3769 15.2708 17.4583 15.385 17.5607 15.4808C17.6631 15.5766 17.7844 15.6519 17.9177 15.7025C18.0509 15.7531 18.1934 15.7779 18.3368 15.7755ZM6.76036 15.7755C7.75643 15.8051 8.7525 15.8051 9.74858 15.7755C9.88919 15.77 10.0273 15.738 10.1549 15.6814C10.2825 15.6247 10.397 15.5445 10.4919 15.4454C10.5868 15.3463 10.6602 15.2302 10.7078 15.1039C10.7554 14.9776 10.7763 14.8435 10.7692 14.7094C10.7537 14.4404 10.6285 14.1879 10.4204 14.0056C10.2123 13.8234 9.9378 13.726 9.65544 13.7341C9.18586 13.7341 8.71628 13.7341 8.24476 13.7341C7.77325 13.7341 7.30367 13.7341 6.8341 13.7341C6.55125 13.7311 6.27848 13.8341 6.07451 14.0211C5.87055 14.208 5.75171 14.4638 5.74359 14.7335C5.73773 14.9986 5.8408 15.2555 6.03078 15.4491C6.22076 15.6428 6.48259 15.7579 6.76036 15.7699V15.7755Z" fill="black"/>
<path d="M0.00970078 6.38133C0.0472488 5.83902 0.277082 5.32502 0.661446 4.92378C1.04581 4.52254 1.56183 4.25793 2.12474 4.17343C2.75035 4.11702 3.37955 4.10588 4.00693 4.14012C4.26888 4.14012 4.31933 4.06794 4.31157 3.8366C4.29411 3.33506 4.29411 2.83166 4.31157 2.33012C4.33369 1.77433 4.55936 1.24352 4.94932 0.82999C5.33929 0.416461 5.86888 0.146381 6.44601 0.066708C7.12533 -0.015607 7.81245 -0.0212027 8.49314 0.0500466C9.12644 0.100879 9.71532 0.380975 10.1389 0.832848C10.5626 1.28472 10.7888 1.8741 10.7712 2.48003C10.7712 2.96121 10.7712 3.4424 10.7712 3.92358C10.7712 4.09385 10.8236 4.13642 10.9982 4.13642C13.0046 4.13642 15.0097 4.13642 17.0134 4.13642C17.1939 4.13642 17.2366 4.0846 17.2346 3.91989C17.2249 3.39614 17.2211 2.87053 17.2346 2.34678C17.2513 1.78588 17.4761 1.24881 17.8691 0.831255C18.2622 0.413698 18.7978 0.142762 19.3807 0.066708C20.1042 -0.0211973 20.8364 -0.0211973 21.5598 0.066708C22.1374 0.146098 22.6675 0.416348 23.0575 0.830329C23.4476 1.24431 23.6729 1.77575 23.6942 2.33197C23.7098 2.85573 23.7059 3.37947 23.6942 3.90323C23.6942 4.0883 23.7428 4.14012 23.9349 4.13456C24.4523 4.12099 24.9697 4.12099 25.4872 4.13456C26.0347 4.13728 26.5666 4.30865 27.0037 4.62314C27.4408 4.93764 27.7596 5.37841 27.9127 5.87978C28.0543 6.34061 28.0039 6.80514 28.0058 7.34925C27.2297 6.49237 26.308 6.17034 25.2136 6.18145C23.4672 6.19996 21.7209 6.18145 19.9745 6.18145C14.2309 6.18145 8.48861 6.18145 2.74761 6.18145C2.25338 6.16302 1.76102 6.24941 1.30602 6.43438C0.851025 6.61936 0.444729 6.89833 0.116421 7.25116C0.0970173 7.27337 0.0737324 7.29928 0.0271645 7.26412C0.00775909 6.97541 -0.00970268 6.68114 0.00970078 6.38133Z" fill="black"/>
</g>
<defs>
<clipPath id="clip0_101_5007">
<rect width="28" height="24" fill="white" transform="matrix(-1 0 0 1 28 0)"/>
</clipPath>
</defs>
</svg>
