<svg width="23" height="26" viewBox="0 0 23 26" fill="none" xmlns="http://www.w3.org/2000/svg">
<g clip-path="url(#clip0_101_5015)">
<path d="M21.2686 17.3299C20.4486 17.3224 19.6282 17.3224 18.8073 17.3299C17.7751 17.3299 17.0926 18.0285 17.0856 19.0707C17.0856 19.7368 17.0661 20.4042 17.0856 21.0703C17.0968 21.3913 16.9073 21.3248 16.7346 21.3262C16.5619 21.3277 16.4087 21.3885 16.4087 21.0844C16.4212 17.337 16.417 13.5896 16.417 9.83934C16.4053 9.578 16.464 9.31836 16.587 9.08844C16.8224 8.68824 17.0731 8.29795 17.3419 7.86523C17.6999 8.37997 18.1387 8.65007 18.7168 8.6529C19.5985 8.6529 20.4816 8.67128 21.3633 8.6529C22.2826 8.62886 22.9638 7.96139 22.9763 7.02948C23.0014 5.23779 22.9986 3.44752 22.9763 1.65583C22.9774 1.22263 22.8093 0.806667 22.5087 0.499158C22.2082 0.191648 21.7998 0.0176987 21.3731 0.0154537C20.4718 0.00272659 19.5623 0.00131247 18.6666 0.0154537C18.2519 0.0232384 17.8561 0.192598 17.561 0.488472C17.266 0.784347 17.0943 1.18408 17.0815 1.60492C17.0703 1.88775 17.0703 2.17057 17.0815 2.45339C17.0815 2.62026 17.0508 2.69662 16.8642 2.69238C16.3209 2.68107 15.7777 2.69238 15.233 2.69238C15.1791 2.70123 15.1239 2.6887 15.0788 2.65738C15.0337 2.62606 15.0021 2.57835 14.9907 2.5241C14.6828 1.70108 14.1689 1.34755 13.3052 1.34755H9.71149C8.82141 1.34755 8.31856 1.68694 7.99958 2.52975C7.95361 2.64995 7.90486 2.69379 7.78228 2.69238C7.22511 2.69238 6.6554 2.69238 6.09127 2.69238C5.95198 2.69238 5.91019 2.6443 5.91298 2.50996C5.91994 2.23987 5.91994 1.96836 5.91298 1.69826C5.91653 1.47382 5.87503 1.251 5.79099 1.04338C5.70696 0.835764 5.58216 0.647696 5.4242 0.490639C5.26624 0.333582 5.07842 0.210825 4.87221 0.129859C4.66599 0.0488928 4.4457 0.0114059 4.22475 0.0196915C3.38899 0.0196915 2.55788 0.0196915 1.73141 0.0196915C0.727111 0.0196915 0.0153252 0.718273 0.0097535 1.7322C-0.00138991 3.48193 -0.00138991 5.2312 0.0097535 6.97999C0.00480556 7.20421 0.0446599 7.42713 0.12691 7.63528C0.209159 7.84344 0.332099 8.03251 0.488311 8.1911C0.644522 8.34969 0.830764 8.4745 1.0358 8.558C1.24083 8.6415 1.4604 8.68196 1.68127 8.67694C2.53234 8.69108 3.38342 8.68401 4.23589 8.67694C4.58541 8.67387 4.92564 8.56235 5.21094 8.35734C5.38227 8.23856 5.48953 7.91614 5.66364 7.97978C5.83776 8.04341 5.92551 8.33048 6.04948 8.52139C6.14559 8.66987 6.23892 8.81835 6.32807 8.96824C6.48852 9.22137 6.57453 9.51571 6.57601 9.81672C6.57601 13.5764 6.57879 17.3356 6.58437 21.0943C6.58437 21.3771 6.42836 21.3291 6.27653 21.3192C6.1247 21.3093 5.89765 21.4252 5.9088 21.083C5.92969 20.3972 5.92133 19.7085 5.9088 19.0212C5.89626 18.0483 5.22487 17.3483 4.26514 17.3243C3.39456 17.3073 2.5212 17.3059 1.65062 17.3243C0.724325 17.3441 0.023682 18.0313 0.0111457 18.9632C-0.0111412 20.7545 -0.0111412 22.5457 0.0111457 24.3369C0.0222891 25.3013 0.745218 25.9843 1.69798 25.9886C2.5602 25.9886 3.42103 25.9971 4.28186 25.9886C4.70664 25.9909 5.11537 25.8239 5.42014 25.5235C5.72491 25.2231 5.90137 24.8133 5.91158 24.3821C5.92761 24.143 5.92761 23.903 5.91158 23.6638C5.88233 23.381 5.97287 23.3187 6.24588 23.3201C9.54851 23.3315 12.8511 23.3202 16.1538 23.33C16.456 23.33 16.86 23.1886 17.0327 23.3951C17.1831 23.5704 17.0801 23.9692 17.0842 24.2704C17.0996 25.3098 17.7807 25.9957 18.8184 25.9971C19.6291 25.9971 20.4393 25.9971 21.2491 25.9971C22.2882 25.9971 22.9861 25.29 22.9903 24.2379C22.9968 22.5193 22.9968 20.8011 22.9903 19.0834C22.9847 18.0427 22.2882 17.3384 21.2686 17.3299ZM10.2227 21.3333C9.76302 21.3107 9.30057 21.3121 8.83951 21.3333C8.59854 21.3432 8.53864 21.2725 8.54003 21.0293C8.54839 18.135 8.54839 15.2408 8.54003 12.3466C8.54003 11.5349 8.54003 10.7232 8.54003 9.91004C8.55101 9.12507 8.32338 8.35575 7.88814 7.70685C7.26876 6.76411 6.6503 5.82136 6.03277 4.87861C6.00212 4.83053 5.94083 4.79094 5.96869 4.67639C6.54536 4.67639 7.11925 4.67639 7.69313 4.67639C7.84636 4.67639 7.8784 4.73578 7.89093 4.87295C7.93414 5.3115 8.14157 5.71647 8.47039 6.00425C8.73226 6.25313 8.98159 6.51475 9.23232 6.77494C9.37124 6.9358 9.54035 7.06693 9.72977 7.16066C9.9192 7.25438 10.1251 7.30882 10.3355 7.32079C10.564 7.32079 10.5068 7.47634 10.5068 7.60361C10.5068 9.05073 10.5068 10.4978 10.5068 11.945C10.5068 14.974 10.5068 18.0031 10.5068 21.0321C10.5208 21.2711 10.4678 21.3446 10.2227 21.3333ZM15.2832 7.4212C14.7102 8.23859 14.4166 9.22403 14.4474 10.2268C14.4697 13.8173 14.4474 17.4091 14.4628 21.001C14.4628 21.2838 14.3903 21.346 14.1271 21.3333C13.6674 21.3107 13.2049 21.3121 12.7439 21.3333C12.5182 21.3418 12.482 21.264 12.482 21.0505C12.4885 17.6764 12.4885 14.3032 12.482 10.931C12.482 9.81672 12.482 8.70239 12.482 7.58948C12.482 7.39999 12.5113 7.31655 12.723 7.30665C13.0856 7.28547 13.4263 7.12343 13.6744 6.85413C13.9738 6.55434 14.2677 6.2503 14.5672 5.95051C14.8652 5.67344 15.0542 5.29617 15.0993 4.88851C15.1119 4.757 15.1188 4.65942 15.3055 4.66366C15.878 4.67922 16.4519 4.66366 17.0926 4.66366C16.4658 5.63234 15.8975 6.54303 15.2832 7.4212Z" fill="black"/>
</g>
<defs>
<clipPath id="clip0_101_5015">
<rect width="23" height="26" fill="white"/>
</clipPath>
</defs>
</svg>
