<svg width="30" height="30" viewBox="0 0 30 30" fill="none" xmlns="http://www.w3.org/2000/svg">
<g clip-path="url(#clip0_103_5073)">
<path d="M29.4956 11.2336C28.6121 7.80904 26.5488 4.80768 23.6705 2.75997C20.7921 0.712255 17.284 -0.24996 13.7661 0.0433713C10.8912 0.242926 8.14337 1.30748 5.8823 3.09772C2.3974 5.83141 0.444765 9.42109 0.0650872 13.8532C-0.13807 16.4066 0.329424 18.9689 1.42108 21.2852C1.44428 21.3696 1.49643 21.4431 1.56835 21.4928C1.64027 21.5425 1.72735 21.5652 1.81432 21.557C4.23884 21.5461 6.66426 21.5461 9.09059 21.557C9.31568 21.557 9.39161 21.4781 9.44314 21.2852C9.74242 20.0727 10.4408 18.9967 11.4256 18.2309C11.9311 17.8314 12.4957 17.5133 13.0989 17.2879L12.8738 16.9455C12.2473 16.008 11.6127 15.076 10.9971 14.1303C10.9124 14.0026 10.8539 13.8592 10.8253 13.7085C10.7966 13.5578 10.7982 13.4029 10.83 13.2529C10.8619 13.1029 10.9233 12.9607 11.0107 12.8348C11.0981 12.7088 11.2097 12.6017 11.339 12.5195C11.4683 12.4374 11.6126 12.3819 11.7636 12.3564C11.9145 12.3309 12.0691 12.3359 12.2181 12.371C12.3671 12.4061 12.5076 12.4707 12.6314 12.561C12.7552 12.6512 12.8597 12.7654 12.9389 12.8966C13.8049 14.1829 14.6637 15.4718 15.5153 16.7635C15.5629 16.8428 15.6275 16.9105 15.7044 16.9617C15.7813 17.0129 15.8686 17.0464 15.96 17.0597C18.3493 17.5434 19.9141 18.9618 20.5948 21.307C20.6599 21.5298 20.744 21.5787 20.9555 21.5787C23.3692 21.5787 25.782 21.5787 28.1938 21.5787C28.2857 21.5908 28.3789 21.5702 28.4572 21.5206C28.5355 21.4709 28.5939 21.3953 28.6223 21.307C30.1008 18.1604 30.4105 14.5885 29.4956 11.2336ZM5.75213 16.1521C5.49992 16.1521 5.24769 16.1521 4.99819 16.1521C4.74869 16.1521 4.4558 16.1521 4.2063 16.1521C3.90133 16.1521 3.60884 16.0307 3.3932 15.8146C3.17755 15.5985 3.05642 15.3055 3.05642 14.9999C3.05642 14.6943 3.17755 14.4013 3.3932 14.1852C3.60884 13.9691 3.90133 13.8477 4.2063 13.8477C4.71886 13.8341 5.23414 13.8477 5.74942 13.8477C5.9053 13.8401 6.0611 13.8644 6.20736 13.9189C6.35363 13.9734 6.48731 14.0572 6.60031 14.165C6.71331 14.2729 6.80327 14.4026 6.86474 14.5464C6.9262 14.6901 6.95789 14.8449 6.95789 15.0012C6.95789 15.1576 6.9262 15.3124 6.86474 15.4561C6.80327 15.5998 6.71331 15.7296 6.60031 15.8374C6.48731 15.9453 6.35363 16.029 6.20736 16.0836C6.0611 16.1381 5.9053 16.1624 5.74942 16.1548L5.75213 16.1521ZM9.63027 9.67109C9.42648 9.87018 9.15526 9.98496 8.87074 9.99252C8.58621 10.0001 8.3093 9.89984 8.09528 9.71184C7.66949 9.32597 7.28169 8.89663 6.87218 8.49445C6.77856 8.39165 6.70635 8.27116 6.65978 8.14005C6.61321 8.00893 6.59323 7.86982 6.60099 7.73087C6.59295 7.51934 6.64798 7.31021 6.75908 7.13017C6.87018 6.95012 7.0323 6.80733 7.22474 6.72C7.42134 6.61168 7.64661 6.5671 7.86955 6.59241C8.09248 6.61772 8.3021 6.71165 8.46953 6.8613C8.90632 7.25366 9.32099 7.67007 9.71163 8.10859C9.90051 8.32985 9.99739 8.61534 9.98225 8.90611C9.9671 9.19688 9.84111 9.47072 9.63027 9.67109ZM16.139 5.7662C16.1247 6.06245 15.9971 6.3418 15.7828 6.54639C15.5685 6.75097 15.2838 6.86508 14.9878 6.86508C14.6918 6.86508 14.4071 6.75097 14.1928 6.54639C13.9785 6.3418 13.8509 6.06245 13.8366 5.7662C13.8366 5.23902 13.823 4.71185 13.8366 4.18467C13.8366 3.8791 13.9577 3.58604 14.1733 3.36997C14.389 3.1539 14.6815 3.0325 14.9864 3.0325C15.2914 3.0325 15.5839 3.1539 15.7995 3.36997C16.0152 3.58604 16.1363 3.8791 16.1363 4.18467C16.1499 4.45641 16.1363 4.72815 16.1363 4.99989C16.1363 5.27163 16.1445 5.50804 16.1363 5.77978L16.139 5.7662ZM21.9481 9.65206C21.8422 9.76085 21.7157 9.84731 21.576 9.90634C21.4363 9.96537 21.2862 9.99578 21.1345 9.99578C20.9829 9.99578 20.8328 9.96537 20.693 9.90634C20.5533 9.84731 20.4268 9.76085 20.3209 9.65206C20.2119 9.54458 20.1252 9.41643 20.0661 9.27507C20.007 9.13371 19.9766 8.98196 19.9766 8.82869C19.9766 8.67541 20.007 8.52368 20.0661 8.38232C20.1252 8.24095 20.2119 8.1128 20.3209 8.00532C20.687 7.62761 21.0559 7.24718 21.441 6.88848C21.6068 6.72774 21.8188 6.62339 22.0471 6.59022C22.2754 6.55705 22.5084 6.59676 22.7129 6.7037C23.1414 6.89935 23.3529 7.26076 23.3556 7.88576C23.3325 8.13943 23.2166 8.37557 23.0302 8.5488C22.6776 8.9238 22.3169 9.29609 21.9454 9.65206H21.9481ZM25.7449 16.1521C25.4737 16.1521 25.2188 16.1521 24.9557 16.1521C24.6926 16.1521 24.4757 16.1521 24.237 16.1521C24.0812 16.1607 23.9253 16.1375 23.7788 16.0839C23.6322 16.0304 23.498 15.9476 23.3843 15.8405C23.2706 15.7335 23.1798 15.6044 23.1173 15.4611C23.0549 15.3179 23.0221 15.1634 23.021 15.0071C23.0199 14.8508 23.0505 14.6958 23.1109 14.5517C23.1713 14.4076 23.2603 14.2772 23.3725 14.1686C23.4847 14.0599 23.6177 13.9752 23.7635 13.9196C23.9093 13.864 24.0649 13.8386 24.2208 13.845C24.7225 13.845 25.2269 13.845 25.7286 13.845C26.0245 13.8571 26.3043 13.9829 26.5102 14.1962C26.716 14.4096 26.8319 14.6941 26.834 14.9908C26.8361 15.2875 26.7242 15.5736 26.5214 15.7898C26.3186 16.006 26.0406 16.1357 25.7449 16.1521Z" fill="black"/>
<path d="M15.4773 29.9918C20.2721 29.8451 24.0852 27.6902 27.0711 23.875H2.89912C6.1535 27.9864 10.2866 30.1494 15.4773 29.9918Z" fill="black"/>
<path d="M14.623 19.2555C13.3538 19.3534 11.911 20.5083 11.8026 21.5463H18.1947C17.7852 20.0979 16.2611 19.1333 14.623 19.2555Z" fill="black"/>
</g>
<defs>
<clipPath id="clip0_103_5073">
<rect width="30" height="30" fill="white"/>
</clipPath>
</defs>
</svg>
