<svg width="29" height="29" viewBox="0 0 29 29" fill="none" xmlns="http://www.w3.org/2000/svg">
<g clip-path="url(#clip0_101_5000)">
<path d="M25.5573 16.363C24.6744 16.363 23.7915 16.372 22.9086 16.363C22.3722 16.3686 21.8424 16.244 21.3648 15.9998C20.8871 15.7556 20.4757 15.3991 20.166 14.9609C20.121 14.9004 20.1081 14.809 19.9871 14.791C20.2831 16.954 19.7954 18.9033 18.3732 20.5668C16.9511 22.2302 15.1017 23.0749 12.9202 23.044C11.0528 23.0219 9.27002 22.2611 7.96168 20.9278C6.65335 19.5946 5.92585 17.7974 5.93822 15.9291C5.97426 11.5812 9.94209 8.22465 14.2574 8.99072C12.9704 7.97487 12.6281 7.25258 12.6281 5.66121C12.6281 4.87196 12.6139 4.08014 12.6358 3.29089C12.6435 3.01408 12.5534 2.96772 12.305 2.98446C11.5751 3.03078 10.8497 3.13236 10.1351 3.28832C6.88426 4.02351 4.03987 5.97982 2.18961 8.75308C0.339356 11.5263 -0.375386 14.9046 0.193051 18.19C1.23037 24.1448 6.37066 28.7258 12.3719 28.9858C16.1042 29.1481 19.3642 27.9558 22.0579 25.3563C24.462 23.0388 25.7272 20.1573 25.9833 16.8317C26.0193 16.363 26.0103 16.363 25.5573 16.363Z" fill="black"/>
<path d="M25.4659 4.11725C22.9382 1.43407 19.7928 0.0950536 16.112 0.00492756C15.381 -0.0130977 14.8687 0.427233 14.8636 1.14438C14.8507 2.79412 14.8507 4.44428 14.8636 6.09488C14.8636 6.78498 15.3423 7.23433 16.0347 7.25364C19.2278 7.33475 21.6538 9.75914 21.7465 12.9586C21.7671 13.6861 22.2317 14.1431 22.9627 14.147C23.7645 14.147 24.5663 14.147 25.3681 14.147C26.1918 14.147 27.0167 14.147 27.8417 14.147C28.5277 14.147 29.0064 13.6616 29 12.9882C28.9678 9.56602 27.8005 6.59314 25.4659 4.11725Z" fill="black"/>
<path d="M8.1686 15.9716C8.16554 16.9287 8.44636 17.8652 8.97552 18.6626C9.50468 19.4599 10.2584 20.0823 11.1413 20.451C12.0242 20.8197 12.9965 20.9181 13.9353 20.7337C14.8741 20.5493 15.7371 20.0905 16.4151 19.4152C17.0932 18.74 17.5557 17.8787 17.7443 16.9404C17.9328 16.0021 17.8389 15.0289 17.4744 14.144C17.1098 13.2591 16.4911 12.5023 15.6965 11.9693C14.9018 11.4364 13.967 11.1512 13.0103 11.1499C11.7311 11.1536 10.5051 11.6621 9.59849 12.5649C8.69193 13.4678 8.17808 14.692 8.1686 15.9716Z" fill="black"/>
</g>
<defs>
<clipPath id="clip0_101_5000">
<rect width="29" height="29" fill="white"/>
</clipPath>
</defs>
</svg>
