<svg width="18" height="33" viewBox="0 0 18 33" fill="none" xmlns="http://www.w3.org/2000/svg">
<g clip-path="url(#clip0_103_5046)">
<path d="M10.2781 0.29494C10.3112 0.0706556 10.2168 0.00261069 9.9898 0.00765078C9.36224 0.0227711 8.73214 0.0378913 8.10459 0.00765078C7.7602 -0.00998954 7.69898 0.100894 7.69898 0.41842C7.71088 5.78108 7.71088 11.1437 7.69898 16.5064C7.68707 21.869 7.68707 27.2451 7.69898 32.6347C7.69898 32.9245 7.75765 33.0177 8.06632 33.0026C8.65351 32.9724 9.24189 32.9724 9.82908 33.0026C10.2015 33.0253 10.2832 32.9094 10.2832 32.5515C10.273 21.8531 10.273 11.1555 10.2832 0.458733C10.2774 0.40433 10.2757 0.34959 10.2781 0.29494Z" fill="black"/>
<path d="M5.14796 27.6776C5.15769 27.5688 5.13542 27.4596 5.08383 27.363C5.03224 27.2665 4.95353 27.1867 4.85715 27.1332C3.61735 26.3293 2.38776 25.5154 1.15562 24.7039L0.0688861 23.9907C-0.0306037 24.094 0.0076602 24.1898 0.0076602 24.2755C0.0076602 25.6363 -0.0050949 26.9946 0.0076602 28.3554C0.00896079 28.9704 0.133681 29.579 0.374603 30.1461C0.615525 30.7131 0.967869 31.2274 1.41125 31.659C1.85464 32.0907 2.38026 32.4312 2.95773 32.661C3.53519 32.8907 4.15304 33.005 4.77552 32.9974C5.07654 32.9974 5.15052 32.9243 5.14796 32.6269C5.13266 30.9788 5.13266 29.329 5.14796 27.6776Z" fill="black"/>
<path d="M17.9847 24.0161C17.9525 24.0129 17.92 24.0129 17.8878 24.0161L12.9847 27.2216C12.935 27.2535 12.8954 27.2985 12.8701 27.3515C12.8449 27.4045 12.8351 27.4633 12.8418 27.5215C12.8418 29.2653 12.8418 31.0092 12.8418 32.7506C12.8418 32.9421 12.9005 32.9875 13.0969 33.0026C15.5051 33.1109 17.7092 31.2738 17.9439 28.9025C18.0765 27.2771 17.9413 25.6516 17.9847 24.0161Z" fill="black"/>
<path d="M0.247442 21.0627C1.79336 22.0707 3.33673 23.0863 4.87754 24.1094C4.95152 24.1573 5.0153 24.2455 5.13265 24.1876C5.13265 22.4916 5.13265 20.7905 5.13265 19.0895C5.13316 19.0118 5.11108 18.9356 5.06903 18.8699C5.02697 18.8042 4.96671 18.7519 4.8954 18.7191L-0.00765991 15.4858C-0.00765991 17.2499 -0.00765991 18.9736 -0.00765991 20.7023C-6.85034e-06 20.9014 0.112238 20.972 0.247442 21.0627Z" fill="black"/>
<path d="M12.8444 15.7602C12.9835 15.7352 13.1121 15.6704 13.2143 15.5738C14.5459 14.6993 15.8546 13.787 17.2168 12.963C17.4821 12.8329 17.6998 12.6245 17.8397 12.3666C17.9795 12.1087 18.0347 11.8143 17.9975 11.524C17.9388 10.0549 17.9847 8.57306 17.9847 7.06104C17.8316 7.15176 17.7296 7.21224 17.6122 7.2828L14.1505 9.55084C13.7194 9.83561 13.1301 10.0548 12.9133 10.4455C12.6964 10.8361 12.8495 11.4535 12.8495 11.9575C12.8418 13.2276 12.8444 14.4901 12.8444 15.7602Z" fill="black"/>
<path d="M17.9337 15.561C17.9158 15.561 17.898 15.561 17.8903 15.561C16.2577 16.6295 14.625 17.6989 12.9923 18.7691C12.9456 18.7926 12.9066 18.8287 12.8799 18.8734C12.8532 18.918 12.84 18.9693 12.8418 19.0211C12.8418 20.7473 12.8418 22.476 12.8418 24.2754C14.5459 23.1539 16.1735 22.0779 17.8087 21.0119C17.9923 20.8909 17.977 20.7347 17.977 20.5659C17.977 18.9799 17.977 17.3956 17.977 15.813C17.9847 15.7299 18.023 15.6291 17.9337 15.561Z" fill="black"/>
<path d="M0.219392 12.444C1.75 13.6183 3.36225 14.6667 4.97704 15.72C4.99996 15.7389 5.02885 15.7492 5.05868 15.7492C5.08851 15.7492 5.11739 15.7389 5.14031 15.72C5.14031 14.019 5.14031 12.3054 5.14031 10.5943C5.14515 10.5363 5.13337 10.4781 5.1063 10.4264C5.07923 10.3747 5.03797 10.3316 4.98725 10.3019C3.34694 9.22588 1.70663 8.1473 0.00255339 7.02588C0.00255339 8.74959 0.00255339 10.3977 0.00255339 12.0483C-0.000577243 12.1274 0.0179036 12.2059 0.0560565 12.2755C0.0942093 12.3451 0.150629 12.4033 0.219392 12.444Z" fill="black"/>
<path d="M0.31123 4.19089C1.23725 4.78562 2.15562 5.39547 3.07909 6.00029L5.14031 7.35355C5.14031 4.92422 5.14031 2.57807 5.14031 0.231912C5.14031 0.0555085 5.07399 0.0202266 4.90817 0.0101464C2.70919 -0.141056 0.469393 1.59777 0.107148 3.73729C0.0826719 3.82455 0.0896416 3.91749 0.126868 4.00023C0.164094 4.08297 0.229264 4.15037 0.31123 4.19089Z" fill="black"/>
<path d="M12.8444 6.9051V7.29066C13.0281 7.29066 13.1148 7.18481 13.2194 7.11677C14.6531 6.17932 16.074 5.22423 17.5204 4.30693C17.659 4.2432 17.767 4.12852 17.8213 3.98731C17.8757 3.8461 17.872 3.68952 17.8112 3.55092C17.25 1.47944 15.5638 0.163976 13.2806 0.0228534C12.9566 0.00269301 12.8291 0.040498 12.8316 0.421025C12.8546 2.57818 12.8444 4.7429 12.8444 6.9051Z" fill="black"/>
</g>
<defs>
<clipPath id="clip0_103_5046">
<rect width="18" height="33" fill="white"/>
</clipPath>
</defs>
</svg>
