<svg width="24" height="23" viewBox="0 0 24 23" fill="none" xmlns="http://www.w3.org/2000/svg">
<g clip-path="url(#clip0_101_4994)">
<path d="M22.9071 17.3639C22.7489 17.3366 22.5881 17.328 22.428 17.3385C22.2996 17.3385 22.2483 17.2965 22.2295 17.1634C22.0252 15.6612 21.817 14.1613 21.6048 12.6637C21.331 10.7038 21.0569 8.7444 20.7825 6.78562C20.5626 5.20925 20.3461 3.63288 20.1211 2.05651C20.0997 1.90675 20.1211 1.86121 20.2768 1.85946C20.4292 1.85931 20.5788 1.81751 20.7101 1.73837C20.8415 1.65923 20.9497 1.54564 21.0238 1.40932C21.1103 1.27517 21.158 1.11872 21.1613 0.95802C21.1646 0.797324 21.1235 0.63894 21.0426 0.501156C20.8544 0.156982 20.5626 0.00547567 20.1784 0.00635143C17.3832 0.00635143 14.588 0.00635143 11.7929 0.00635143H11.2529C8.62887 0.00635143 6.00311 0.00635143 3.37563 0.00635143C2.85025 0.00635143 2.45322 0.383804 2.4344 0.882112C2.42593 1.00274 2.44131 1.12387 2.47964 1.23827C2.51796 1.35267 2.57843 1.45798 2.65743 1.54791C2.73643 1.63784 2.83234 1.71054 2.93942 1.76167C3.04651 1.81279 3.16256 1.84129 3.28065 1.84545C3.52623 1.85508 3.47746 1.97681 3.45778 2.11606C3.24899 3.61711 3.03936 5.11788 2.82886 6.61835C2.34455 10.0592 1.85511 13.4992 1.38706 16.9418C1.34428 17.2527 1.26812 17.3578 0.9481 17.3455C0.818179 17.3358 0.687764 17.3556 0.566204 17.4035C0.444644 17.4515 0.33495 17.5263 0.244987 17.6228C0.155024 17.7192 0.0870203 17.8348 0.0458517 17.9613C0.00468298 18.0878 -0.00863062 18.222 0.00686436 18.3544C0.0462251 18.8475 0.456946 19.1908 1.02169 19.1916C2.61837 19.1916 4.21419 19.1916 5.81344 19.1916C6.00339 19.1916 6.07784 19.2319 6.07014 19.443C6.05388 19.8677 6.05987 20.2942 6.07014 20.719C6.09067 21.9529 6.97372 22.8926 8.18193 22.9031C10.5995 22.9224 13.0173 22.9224 15.4354 22.9031C16.6445 22.8935 17.5241 21.9564 17.5464 20.7198C17.5532 20.3047 17.5626 19.8879 17.5421 19.4736C17.5301 19.2337 17.614 19.1908 17.827 19.1916C19.3861 19.2004 20.9442 19.1978 22.5024 19.1916C22.6439 19.1944 22.7851 19.1803 22.9234 19.1496C23.1173 19.0988 23.2891 18.9831 23.4116 18.8211C23.5341 18.659 23.6002 18.4597 23.5995 18.2548C23.5988 18.0499 23.5314 17.8511 23.4078 17.6899C23.2843 17.5287 23.1117 17.4143 22.9174 17.3648L22.9071 17.3639ZM8.95032 2.69319C8.74496 5.65151 8.53903 8.60983 8.33253 11.5681C8.20332 13.4283 8.07069 15.2875 7.94576 17.1476C7.93549 17.3035 7.88073 17.3403 7.7404 17.3385C7.27749 17.3315 6.81457 17.3263 6.35251 17.3385C6.1634 17.3438 6.11121 17.2886 6.12575 17.096C6.19763 16.1711 6.25582 15.2455 6.32085 14.3207C6.44578 12.5283 6.57099 10.7359 6.69649 8.94349C6.84024 6.89071 6.98513 4.83822 7.13117 2.78602C7.15341 2.48125 7.04046 2.05826 7.2424 1.90413C7.44434 1.74999 7.82084 1.87172 8.12289 1.87172V1.85596C8.15112 1.85596 8.17936 1.85596 8.20845 1.85596C8.47029 1.87172 8.83566 1.73948 8.96572 1.90763C9.09578 2.07577 8.96914 2.42433 8.95032 2.69319ZM12.4098 17.3429C11.9948 17.3193 11.5789 17.3193 11.1639 17.3429C10.9406 17.3534 10.885 17.2869 10.8858 17.0583C10.8944 14.5746 10.891 12.0901 10.891 9.60557C10.891 7.12103 10.891 4.61811 10.8858 2.12394C10.8858 1.91463 10.9235 1.8437 11.1425 1.85333C11.6046 1.87347 12.0675 1.86384 12.5304 1.85333C12.6622 1.85333 12.7272 1.88311 12.7016 2.02848C12.6986 2.06696 12.6986 2.10561 12.7016 2.14408C12.7016 7.10264 12.7033 12.0615 12.7067 17.0206C12.7101 17.2623 12.6759 17.3604 12.4098 17.3429ZM17.1622 17.3429C16.7386 17.3158 16.3125 17.3298 15.8881 17.3385C15.7281 17.3385 15.6605 17.3114 15.6476 17.1231C15.4058 13.5185 15.1585 9.91413 14.9058 6.31008C14.8074 4.8931 14.7107 3.47612 14.602 2.06089C14.5883 1.88573 14.6328 1.8472 14.7903 1.85508C15.0256 1.86647 15.2617 1.85508 15.4979 1.85508H15.9796C16.4169 1.85508 16.4075 1.85508 16.4426 2.31836C16.6257 4.97834 16.8105 7.63802 16.997 10.2974C17.1528 12.5332 17.3042 14.7691 17.4668 17.004C17.4856 17.2641 17.4351 17.3596 17.1622 17.3429Z" fill="black"/>
</g>
<defs>
<clipPath id="clip0_101_4994">
<rect width="23.5882" height="22.9143" fill="white"/>
</clipPath>
</defs>
</svg>
