<svg width="41" height="41" viewBox="0 0 41 41" fill="none" xmlns="http://www.w3.org/2000/svg">
<path d="M15.5625 37.375H25.6875C34.125 37.375 37.5 34 37.5 25.5625V15.4375C37.5 7 34.125 3.625 25.6875 3.625H15.5625C7.125 3.625 3.75 7 3.75 15.4375V25.5625C3.75 34 7.125 37.375 15.5625 37.375Z" stroke="#00ADB5" stroke-width="2.53125" stroke-linecap="round" stroke-linejoin="round"/>
<path opacity="0.4" d="M26.5312 16.7031C27.9292 16.7031 29.0625 15.5698 29.0625 14.1719C29.0625 12.7739 27.9292 11.6406 26.5312 11.6406C25.1333 11.6406 24 12.7739 24 14.1719C24 15.5698 25.1333 16.7031 26.5312 16.7031Z" stroke="#00ADB5" stroke-width="2.53125" stroke-miterlimit="10" stroke-linecap="round" stroke-linejoin="round"/>
<path opacity="0.4" d="M14.7187 16.7031C16.1167 16.7031 17.25 15.5698 17.25 14.1719C17.25 12.7739 16.1167 11.6406 14.7187 11.6406C13.3208 11.6406 12.1875 12.7739 12.1875 14.1719C12.1875 15.5698 13.3208 16.7031 14.7187 16.7031Z" stroke="#00ADB5" stroke-width="2.53125" stroke-miterlimit="10" stroke-linecap="round" stroke-linejoin="round"/>
<path opacity="0.4" d="M14.55 22.6938H26.7C27.5437 22.6938 28.2187 23.3688 28.2187 24.2126C28.2187 28.4145 24.8269 31.8063 20.625 31.8063C16.4231 31.8063 13.0312 28.4145 13.0312 24.2126C13.0312 23.3688 13.7062 22.6938 14.55 22.6938Z" stroke="#00ADB5" stroke-width="2.53125" stroke-miterlimit="10" stroke-linecap="round" stroke-linejoin="round"/>
</svg>
